<svg xmlns="http://www.w3.org/2000/svg" viewBox="0 0 1275.95 565.07"><defs><style>.cls-1,.cls-90{fill:#cd863c;}.cls-2{fill:#632047;}.cls-3{fill:#671d4e;}.cls-4{fill:#651b44;}.cls-5{fill:#5e2a37;}.cls-6{fill:#6c202d;}.cls-7{fill:#6d3162;}.cls-8{fill:#5a151f;}.cls-9{fill:#f6c243;}.cls-10{fill:#cd9241;}.cls-11{fill:#658958;}.cls-12{fill:#66b963;}.cls-13{fill:#65895d;}.cls-14{fill:#64885c;}.cls-15{fill:#67b762;}.cls-16{fill:#64b960;}.cls-17{fill:#64885b;}.cls-18{fill:#68b763;}.cls-19{fill:#63895b;}.cls-20{fill:#67855d;}.cls-21{fill:#6ab766;}.cls-22{fill:#68b766;}.cls-23{fill:#b3d5ae;}.cls-24{fill:#66b462;}.cls-25{fill:#68b863;}.cls-26{fill:#f4db98;}.cls-27{fill:#b4d1b1;}.cls-28{fill:#b5d6b2;}.cls-29{fill:#abc6a4;}.cls-30{fill:#6bb466;}.cls-31{fill:#638958;}.cls-32{fill:#add1a9;}.cls-33{fill:#b5d6b1;}.cls-34{fill:#63885a;}.cls-35{fill:#6a805e;}.cls-36{fill:#afcfa9;}.cls-37{fill:#adc9a6;}.cls-38{fill:#aec8a5;}.cls-39{fill:#6fb669;}.cls-40{fill:#a2c49c;}.cls-41{fill:#b3d4ae;}.cls-42{fill:#a9c7a3;}.cls-43{fill:#ce9140;}.cls-44{fill:#f7c443;}.cls-45{fill:#edb043;}.cls-46{fill:#f8e2a0;}.cls-47{fill:#f7c543;}.cls-48{fill:#f4c644;}.cls-49{fill:#e8b045;}.cls-50{fill:#dbc2cf;}.cls-51{fill:#dabdcd;}.cls-52{fill:#caa8bc;}.cls-53{fill:#f6c344;}.cls-54{fill:#f8c545;}.cls-55{fill:#f7c643;}.cls-56{fill:#c99240;}.cls-57{fill:#f4c545;}.cls-58{fill:#f9e2a1;}.cls-59{fill:#f0d699;}.cls-60{fill:#e6c790;}.cls-61{fill:#e9cc9a;}.cls-62{fill:#663520;}.cls-63{fill:#66b862;}.cls-64{fill:#f8c743;}.cls-65{fill:#f7c646;}.cls-66{fill:#f9c642;}.cls-67{fill:#f8c544;}.cls-68{fill:#661d49;}.cls-69{fill:#f6c76e;}.cls-70{fill:#f3d8b3;}.cls-71{fill:#f8c644;}.cls-72{fill:#f9c744;}.cls-73{fill:#f7c644;}.cls-74{fill:#f6c36d;}.cls-75{fill:#f6c441;}.cls-76{fill:#671e32;}.cls-77{fill:#f5d7af;}.cls-78{fill:#511512;}.cls-79{fill:#f3c461;}.cls-80{fill:#e69e3a;}.cls-81{fill:#4b1523;}.cls-82{fill:#de4151;}.cls-83{fill:#d8a789;}.cls-84{fill:#ef454b;}.cls-85{fill:#e6c89e;}.cls-86{fill:#d13f54;}.cls-87{fill:#df4253;}.cls-88{fill:#f4c000;stroke:#f49e00;stroke-width:14px;}.cls-88,.cls-90{stroke-miterlimit:10;}.cls-89{fill:#f7931e;}.cls-90{stroke:#000;stroke-width:3px;}.cls-91{fill:#bf0203;}.cls-92{fill:#c81d03;}.cls-93{fill:#c81d04;}.cls-94{fill:#c91e04;}.cls-95{fill:#c91d04;}.cls-96{fill:#fae83d;}.cls-97{fill:#f1ae18;}.cls-98{fill:#ee7f0c;}.cls-99{fill:#f5d22c;}.cls-100{fill:#ec5d65;}.cls-101{fill:#f2c120;}.cls-102{fill:#ee8009;}.cls-103{fill:#ee800a;}.cls-104{fill:#ed7f0a;}.cls-105{fill:#ed7e09;}.cls-106{fill:#c91f04;}.cls-107{fill:#c91f03;}.cls-108{fill:#f2c123;}.cls-109{fill:#ea5b61;}.cls-110{fill:#faf475;}.cls-111{fill:#f9e63c;}.cls-112{fill:#f2c01f;}.cls-113{fill:#f8e43b;}.cls-114{fill:#faf575;}.cls-115{fill:#c81d02;}.cls-116{fill:#f2c11f;}.cls-117{fill:#ec5e65;}.cls-118{fill:#ec5e64;}.cls-119{fill:#f3c323;}.cls-120{fill:#ca1e04;}.cls-121{fill:#c91f05;}.cls-122{fill:#c00603;}.cls-123{fill:#c91e05;}.cls-124{fill:#f0bb21;}.cls-125{fill:#ca2b07;}.cls-126{fill:#ce350a;}.cls-127{fill:#c82c05;}.cls-128{fill:#ca2607;}.cls-129{fill:#f9e73d;}.cls-130{fill:#f7e13b;}.cls-131{fill:#f6e23c;}.cls-132{fill:#cc300c;}.cls-133{fill:#ca2104;}.cls-134{fill:#c92606;}.cls-135{fill:#ca2507;}.cls-136{fill:#ca2707;}</style></defs><g id="Layer_2" data-name="Layer 2"><g id="Layer_1-2" data-name="Layer 1"><path class="cls-1" d="M718.44,508.51c1.66,4.08,5.77,3.31,8.88,4.3,8.78,2.78,17.57,5.48,24.58,11.84s7,12.67-.72,18.48c-9.08,6.88-19.81,10.24-30.67,12.77a359,359,0,0,1-95.94,8.88c-30.67-1.2-61.39-3.36-90.66-14.2a51.72,51.72,0,0,1-11.86-6.08c-10-7-10.15-15-.15-21.8a58.82,58.82,0,0,1,15.37-7.41c2.58-.82,5.36-1.38,6.87-4,3.14-.27,3.64,2.44,4.26,4.34,3.57,11.06,12.51,16.47,26.71,12,7.56-2.38,14.84-5.51,22.33-8.07,4.15-1.41,20.6,2.7,23.39,6,1.81,2.15,1.64,4.75,1.29,7.12-2.42,16.55,17.61,23.51,28.39,17.15,20-11.82,40.94-22.21,59.82-36C712.88,511.93,713.91,507.36,718.44,508.51Z" transform="translate(-23.1)"/><path class="cls-2" d="M656.34,271.09c4.47.06,7.65,3.33,12.56,5.07-1.7-9.72-6.56-17.18-11.85-24.42-1-1.4-2.51-2.51-3.32-4-1.55-2.85-7.21-4.5-4.64-8.11,2-2.83,6.54-.08,9.78.69a46.08,46.08,0,0,1,21,10.73c4,3.68,5.86,4.47,8.84-1.31a46.79,46.79,0,0,1,26.19-23.12c1.53-.56,3.33-1.8,4.87-.21s.08,3.24-.6,4.73c-4,8.74-8.71,17.22-10,28,3.93-1.76,7.12-3.31,10.39-4.64,9.12-3.72,18.33-3.61,27.74-.93,5.73,1.63,7.62,3.75,3.15,9-4.78,5.64-9,11.77-13.8,18.19,3.2,1.78,6.21,1.18,9,1.64,1.65.27,3.9-.14,4.58,1.75.9,2.47-1.62,3.32-3.06,4.48-2.89,2.32-5.92,4.47-9,6.77,7.34,4.47,7.34,4.47-1.88,12.24,6.51,2.93,12.79,5.6,18.23,9.75a40,40,0,0,1,12.06,14c.76,1.54,1.92,3.26.65,4.83s-3.19.45-4.79-.07c-8.62-2.8-17.16-5.92-27.82-6.61,4.14,3.78,7.3,6.45,10.2,9.37,2.54,2.54,2.52,4.71-1.47,5.87-4.26,1.24-8.47,2.67-14.24,4.5,10.45,6.23,15.09,14.84,15.93,25.51.17,2.1,1.37,4.81-1.3,6-2.26,1-3.43-1.46-4.78-2.73-4.32-4.08-8.36-8.52-15.43-10.46,4.52,11,10.83,20.47,12.86,31.59-1.65,4.18-3.33,1.07-4.43-.22-2-2.39-2.69-5.73-5-8-8.91-15.84-16.91-32.39-31.23-44.33-6.67-5.57-13.09-12.28-23.15-11-6.18-1.51-12.37-2.19-18.57-.12-15.66,1.27-26.76,11.31-38.5,20.09-1.55,1.16-2.65,2.92-4.51,3.75-2.16.11-4.87,2.29-6-1.56a94.58,94.58,0,0,1,36.15-26.39c5.2-2.22,5.55-4.29,2.54-8.57-5.4-7.68-13.06-11.92-21.58-14.9-4.66-1.63-9.48-2.79-14.22-4.16,2.19-5.24,6.86-3.46,10.78-3.82,2.58.46,5,1.55,7.53,2.13,4.71,2.65,9.73,4.67,14.55,7.11A66.7,66.7,0,0,1,650.54,321c2.51,3.61,5.05,4.07,8.61,2.31a11.31,11.31,0,0,1,4.49,0c8.69,0,16.57,3.61,24.82,5.54a16.39,16.39,0,0,1,8.09,4.89c.58.45,1.18.89,1.79,1.3,5.65,5.26,12,9.79,16.27,16.45,4.95,7,12.83,9.61,19.94,13.16-1.64-7.84-8.94-8.5-14.3-11.59a5.27,5.27,0,0,1-1.68-2.7c-.15-5.69,3.9-7.24,8.32-8.07,2.54-.48,5.4.19,6.86-2.75-3.9-5.89-10.1-7.09-16.35-8.17a24.81,24.81,0,0,0-5.73-1.1c-2.8-.24-6.27.6-7.44-3.07-1.05-3.3.19-6.23,2.74-8.53a5.1,5.1,0,0,0,1.76-3.06,5.18,5.18,0,0,0-.29-1.75c-7-3.65-12.12,1.28-17.79,3.69a9.41,9.41,0,0,1-7.48.36c-1.77-.63-3.39-1.49-5.28.17-2.33,2.06-5.22,2.14-8.16,1.37-10.84-7.83-22.28-14.36-35.79-16.34a3.8,3.8,0,0,1-2.37-1.63,2.47,2.47,0,0,1,.19-2.24c2.76-2.55,6.16.59,9-1l13.92,3.36c-8.08-10.94-18.55-17-28.71-23.56-1.76-1.12-6.25-1.11-3.58-5.41a40.84,40.84,0,0,1,9.07-1.23c2.7-.05,3.26,2.5,4.78,3.9.75.7,1.42,1.48,2.13,2.23,9.83,8,20.25,15.34,27.37,26.32,1.73,2.67,4.29,7.39,9.39,4a22.64,22.64,0,0,1,8.34-6c1.84-1.43,4.72-3.05,6-1.42,5,6.13,10.84,1.91,16.31,2,2,0,4-.43,5.9.32,3.14,1.13,6.63,1.44,9.1,4,1.93,3.45,1,6.55-1.11,9.58-1.24,1.8-2.81,3.76.11,5.55,11.18-1,22.11-.05,32.59,3.74-4.94-7.23-13-8.92-20.29-11.95a8.35,8.35,0,0,1-2-.79c-1.73-1.32-3.08-2.87-3.11-5.2-.06-1.1.3-2.21-.07-3.29-3.47-2.22-7.37-.4-11-1.27-5.59-2.18-4-6.44-3-10.46,1.31-5.23,5.7-9.13,6.4-14.62-.3-3.39-2.25-3.25-4.72-2.3a35.65,35.65,0,0,0-11.69,7.7c-7.09,6.7-7.15,6.67-14.52.9-1.21-.94-2.33-1.87-4-1.23-2.34,3.25,1.3,9.79-5.74,10.41-3.69-.75-5.72-3.78-8.2-6.11-4.38-4.11-8.94-7.76-14.72-9.84-2.29-.82-5.72-1.31-4.81-5.33A4.24,4.24,0,0,1,656.34,271.09Z" transform="translate(-23.1)"/><path class="cls-3" d="M605,357.84c1.44,1.34,3.21-1.63,4.61.35a8.5,8.5,0,0,0,5.24,3.92c15.39.9,30.23,5,45.27,7.85,16,3,32.26,4.91,47.77,10.19,7.39,1.81,14.82,3.53,20.7,8.86,5.71,1,3.42,8.18,7.83,10.2,3.34,8.26,4.73,16.92,5.22,25.75,0,5.71-1.31,11.35-.92,17.08-.8,3.37,2,7.67-2.58,10.08-4.19-1.74-3.53-5.58-3.66-8.92-.37-9.15.15-18.29-1.43-27.43-1.05-6.08-3.51-10.13-9.68-11.58-4.12-1-7.75-3.29-11.78-4.47-6.2-2.8-10.71-1.71-13.06,5.3-.69,2.07-2.89,3.33-4,5.27-2.89,3.9-7.07,5.9-11.37,7.74-11.05.65-21.93.17-32.6-3.35-3.18-1.05-5.91-2.15-7.64-5.06a14,14,0,0,1-3.87-9.86c-.07-2.1.18-4.81-2.47-5.51s-3.54,2-4.72,3.7a20.83,20.83,0,0,1-3,3.16c-1.51,1.25-2.72,2.8-4.2,4.07a49.29,49.29,0,0,1-17.58,1.68c-8.23-.53-15.38-3.92-18.68-12.43a12.57,12.57,0,0,0-2.61-5.27,5.16,5.16,0,0,1-.41-3.83c3.29-5.2,3.41-11,3.51-16.91.09-5.15,1.84-9,8-6.92C601.05,362.86,602.58,359.55,605,357.84Z" transform="translate(-23.1)"/><path class="cls-4" d="M737.89,451.77c2.25-3.25,1-7,1.6-10.53,4.44,2,.59,6.22,2.3,9a99.8,99.8,0,0,1-23.35,58.3c-6.25,7.16-13.8,12.68-22,17.41q-21.24,12.27-42.39,24.67a23.93,23.93,0,0,1-18.54,2.92c-10.5-2.57-15.85-8.86-15.28-19.56.29-5.45-1.72-7.34-6.53-9.57-7.87-3.66-14.93-3.81-22.54,0-3.29,1.65-7,2.53-10.48,3.75-20.61,7.2-29.08,3.28-36.55-16.89-.15-1-.33-2-.43-2.94-.6-5.77-1.4-11.93,4.68-15.27,6.41-3.52,11.59.2,15.7,4.75s8,1.6,11.22-.32c3.53-2.12-.25-4.68-1.29-6.75-7.83-15.7-9-32.22-6.93-49.34,2.44-19.91,8-38.75,18.33-56l1.79,3.87c2.7,3.64-.06,6.71-1.35,9.65-8.85,20.24-14.09,41.28-12.75,63.4,1.3,21.37,11,38.19,30,49,2.28,1,4.13,2.69,6.43,3.67,5.36,2.27,9.61,3.35,13.87-3,5.61-8.41,14.77-7.9,21.13,0,1.24,1.54,2.09,3.37,3.44,4.84,1,1.08,2.19,2,2.68,3.46.49,2.06-.75,3.59-1.61,5.24-2,3.24.33,8.55-4.87,10.29-4-1.55-4-5.6-5.48-8.78-1.27-2.82-1.5-6.13-4-8.32-.93-.38-2-.84-2.82-.23-5.68,4.37-6.62,17.44-1.72,23.4,3.59,4.32,8.33,5.37,13.65,4.77,9.86-3,17.65-9.81,26.6-14.5,7.45-3.9,14.46-8.74,21.87-12.68,24-12.74,35.22-33.93,40.76-59.17C733.77,456.84,733.87,453.23,737.89,451.77Z" transform="translate(-23.1)"/><path class="cls-5" d="M656.34,271.09,651,272.9c-5.71,3.27-11.44,3.16-17.18.07l-11.37-.38C633.55,268.15,644.82,266.68,656.34,271.09Z" transform="translate(-23.1)"/><path class="cls-6" d="M640.78,298.2c-2.73,2-5.94,1.1-8.94,1.41-8,3.84-15.85,1.75-23.72-.41A60.22,60.22,0,0,1,640.78,298.2Z" transform="translate(-23.1)"/><path class="cls-7" d="M608.12,299.2l23.72.41q.07.61.12,1.23c-3.88,4.88-9-.2-13.27,1.66-3.7-.51-7.36-.63-10.76,1.33-1.23-.06-2.91-.21-2.6-1.66C605.58,301,607.14,300.18,608.12,299.2Z" transform="translate(-23.1)"/><path class="cls-8" d="M741.79,450.21q-1.15-4.48-2.3-9A47.21,47.21,0,0,1,741.68,425,94.38,94.38,0,0,1,741.79,450.21Z" transform="translate(-23.1)"/><path class="cls-9" d="M707.91,383.08,612.5,364c-2.8-3.43,0-5.43,2-7.47,10.92-10.67,23.38-18.93,37.86-24a35.08,35.08,0,0,1,21.24,0c15,5.19,22.67,17.57,29.73,30.46,2.13,3.89,3.48,8.19,5,12.37C709.4,378,709.84,380.61,707.91,383.08Z" transform="translate(-23.1)"/><path class="cls-10" d="M707.91,383.08c-6.64-20.1-16.95-37.72-34.28-50.57,17,2,27.66,13.21,37.4,25.67A125,125,0,0,1,728.63,389,83.41,83.41,0,0,1,707.91,383.08Z" transform="translate(-23.1)"/><path class="cls-11" d="M678.18,292.07c6.31-3.65,1.62-9.94,3.51-14.64,3.06-.19,3.63,2.7,5.27,4.28,7.86,15.08,7.95,15.17,20.59,3.78,4.05-3.65,8.2-7,13.18-9.21a3.59,3.59,0,0,1,2,.45c-2.32,5.95-4.76,11.87-6.9,17.88-.81,2.28-3,5.15,1.09,6.79a1.62,1.62,0,0,1-.18,1.87c-1.7,1.25-4.07.74-5.72,2.16-4.92.24-9.8.37-14.55,2.12-2.6,1-6.13,4.17-6-3.26.08-5.63-4.1-.22-6.37-.19-5.3-1.33-4.86-6.51-6.78-10.1A2.94,2.94,0,0,1,678.18,292.07Z" transform="translate(-23.1)"/><path class="cls-12" d="M678.93,293.69c5.45,1.62,2.64,7.34,5.17,10.41L676.56,310c-4.62,1.1-6.72-2.45-8.81-5.26a89,89,0,0,0-31.29-26.11l-1.71-1.4c2.83-4.75,7.49-3.14,11.35-2.73,10.31,1.11,19.46,5,26.63,12.89C674.69,289.59,676.49,292,678.93,293.69Z" transform="translate(-23.1)"/><path class="cls-13" d="M696.17,336.67c-10.13-6.21-21-9.94-33-10.26-1.64-4,2-5,3.91-6.93,1-1,2.32-1,3.49-1.47,4.23-.17,6.84-3.35,10.06-5.39.89-.57,2-2,2.83-.34.38.82-.48,2.23-.78,3.38,1.18,3.41,2.83,4.84,6.95,3.53,5.32-1.71,10.5-3.82,15.86-5.42,2.47-.74,4.64-1.66,6.67.65-2,3.93-6.21,8.36-5.47,11.66,1.13,5,8,.05,11.48,3.09-2.57,3.79-7.07,2.4-10.47,4C703.54,333.2,700,335.34,696.17,336.67Z" transform="translate(-23.1)"/><path class="cls-14" d="M711,237.24c-2.81,9.74-7.64,19.06-6,29.7,2.25,1.93.14,3.93.09,5.89a14.59,14.59,0,0,0-2.8,2.28c-5.54,7.33-10.41,5.5-15-1,1.49-14,10.57-24.2,17.92-35.25C706.91,237.76,708.37,235.51,711,237.24Z" transform="translate(-23.1)"/><path class="cls-15" d="M706.59,239.74c-5.78,10.27-12.87,19.86-16.24,31.4-.35,1.21-2.06,2-3.14,3l-6.12-5.91c-9.44,1.67-10.69-7-15-11.86-1.4-2-2.79-3.93-4.19-5.9,1.79-2.39,3.75-1.36,5.82-.4a58.26,58.26,0,0,1,13.18,9c1.68,1.44,2.7,4.44,5.89,3l5.4-10.24c3.28-2,4.25-6,7-8.41C701.35,241.66,702.89,238.53,706.59,239.74Z" transform="translate(-23.1)"/><path class="cls-16" d="M757.86,329.55c-13.38-3.66-27-4.94-40.85-4.88-.57-8.44,6.34-14.71,15-13.55l.28.33c4.32,3.79,10.24,4.46,14.88,7.69C751.28,322,756.07,324.23,757.86,329.55Z" transform="translate(-23.1)"/><path class="cls-17" d="M712.54,353.06l-15.28-15.89c4.55-4.91,10.61-3.85,15.87-2.87,6.48,1.2,13.07,1.69,19.47,3.27,2.81.38,4.81,2.06,6.6,4.08-4.42,1.31-8.86,2.55-13.25,4-2.46.8-5.45,1.12-5.88,4.6C718.33,353.2,715,352,712.54,353.06Z" transform="translate(-23.1)"/><path class="cls-18" d="M669.2,320.71l-6,5.7-4.46,0a17.75,17.75,0,0,1-9.12-6.71c-2.47-3.57-6.44-5.9-10.14-8.28l-13.68-7.18c1.09-1.78,2.9-1.75,4.6-1.65C645.68,303.57,659,308.82,669.2,320.71Z" transform="translate(-23.1)"/><path class="cls-19" d="M636.46,278.66c13.53,3.61,24.11,11.52,32.7,22.36,2.41,3,4.93,6,7.4,9-2.83,3.37-5.81,3.09-8.91.39-1.48-1.29-3.52-2.28-4.38-3.89C657,294.64,646.45,286.93,636.46,278.66Z" transform="translate(-23.1)"/><path class="cls-20" d="M722.67,290.54c1.86-5,3.5-10.12,5.65-15,2.08-4.71.52-6.24-4.19-6.06-3.4.14-6.82,0-10.23,0-.06-1,.23-2.28,1.2-2.47,9.4-1.82,18.28-6,28-6.08.71,0,1.27.72,1.82,1.22-3.94,8.14-12.31,13.38-14.69,22.53C729.47,288.94,728,292.2,722.67,290.54Z" transform="translate(-23.1)"/><path class="cls-21" d="M745,262.2c-10.34,2.5-20.39,6.21-31.06,7.33l-8.86,3.3c-1.86-1.93-.1-3.93-.09-5.89a5.29,5.29,0,0,1,1.42.2c6.91-1.83,12.23-7.5,19.52-8.32,6.64-.76,13.63-3.56,19.47,2.43A1.48,1.48,0,0,1,745,262.2Z" transform="translate(-23.1)"/><path class="cls-22" d="M733.6,339.85c-12.12-.9-24.07-3.9-36.34-2.69a3.83,3.83,0,0,1-1.09-.49c2.3-3.14,4.58-6.29,8.71-7.21,8,1.47,16.64,0,24,4.83C731,335.68,734.22,336.13,733.6,339.85Z" transform="translate(-23.1)"/><path class="cls-23" d="M669.2,320.71c-9-5.58-17.25-12.45-28-15-5.15-1.21-10.16-2.23-15.42-1.45l-7.1-1.78c4.1-3.12,8.89-.76,13.27-1.66,14.89,1.19,27.46,7.6,38.63,17.17C670.13,318.91,669.67,319.81,669.2,320.71Z" transform="translate(-23.1)"/><path class="cls-24" d="M712.18,314.42l-33,11.9c.13-4.4,2.5-7.33,3.52-10.66,2.57,1.26,4.9.24,7.24-.76,6-2.11,11.94-4.21,18.47-3.35,1.67.22,3.49,0,4.36,1.95A1.66,1.66,0,0,1,712.18,314.42Z" transform="translate(-23.1)"/><path class="cls-25" d="M712.54,353.06c1.33-4.09,4.17-4.17,7.53-2.84l1.19,1c3.08,3.06,7.7,3.91,10.62,7s7.52,5.54,4.54,11c-4.53-2.84-9.09-5.52-14.49-6.59C716.78,361.62,715.76,356.18,712.54,353.06Z" transform="translate(-23.1)"/><path class="cls-26" d="M652.39,332.53c-12.86,6.87-25.82,13.62-35.74,24.74-1.78,2-4.28,3.54-4.15,6.71-5.14.14-7.34-1.17-2.85-5.79,9.72-8.92,19.91-17.2,32.14-22.51C645.17,334.2,648.51,332.39,652.39,332.53Z" transform="translate(-23.1)"/><path class="cls-27" d="M678.93,293.69c-3.77-1.17-5.73-4.56-8.49-7-10.37-9-22.2-12.34-35.69-9.47-1.45-.12-3.15-.31-3.59-1.79-.6-2,1.85-1.52,2.62-2.5L651,272.9c11.34,3.18,20,10.18,27.22,19.17Z" transform="translate(-23.1)"/><path class="cls-28" d="M745.36,261.25c-12-3.85-22.76-.58-33.19,5.25-1.77,1-3.46,4.22-5.8.64,10.89-8.25,22.54-13.85,36.72-10.4C746.7,257.62,746.8,258,745.36,261.25Z" transform="translate(-23.1)"/><path class="cls-29" d="M685.4,282l-3.71-4.53c5.41-1.14,6.56,4.15,9.26,6.65,3.58,3.32,5.53,3.42,8.52-.49,5.15-6.76,12.09-10.6,20.8-10.71,2.87,0,5.52.1,2.48,3.86a5.9,5.9,0,0,0-1.36.29c-7.44,3.12-14.62,6.5-20.56,12.33-3.7,3.64-7.84,3.53-11-1.54A57.07,57.07,0,0,0,685.4,282Z" transform="translate(-23.1)"/><path class="cls-30" d="M722.67,290.54c3.27-1,4.05-5.2,7.6-5.81l2.85,1.53c1.35,1.3,3.52,1.93,3.51,4.33-3,3-5.86,5.83-10.6,6.07C720.13,296.94,719.38,295,722.67,290.54Z" transform="translate(-23.1)"/><path class="cls-31" d="M732,311.12c-7.27,2-11.75,7.08-15,13.55-2.94.14-5.08-.18-2.92-4,2.27-4,5.18-7.62,6-12.28,2.45-2.77,5.08-4.46,8.53-1.48C728.58,309.28,730.55,310,732,311.12Z" transform="translate(-23.1)"/><path class="cls-32" d="M686.83,262.15c-1.5,5.11-3.42,1.3-4.8.06-5.91-5.29-11.65-10.8-20.09-11.73-1.45-1.61-3.49-2.78-4-5.75,8.83,1.66,15.77,6.2,22.14,11.91C682.26,258.57,683.74,261.35,686.83,262.15Z" transform="translate(-23.1)"/><path class="cls-33" d="M733.6,339.85c-5.92-5.71-13.36-7.64-21.22-8.57-2.56-.3-5.47.7-7.49-1.82l13.31-.29c8.4,1.79,17,3.3,21,12.47Z" transform="translate(-23.1)"/><path class="cls-34" d="M639.47,311.46c8.57,2.24,14.33,8.08,19.26,15-4.88,2.06-8,1-10.57-4.15C646.13,318.25,642.43,315.05,639.47,311.46Z" transform="translate(-23.1)"/><path class="cls-35" d="M666.13,256.38c5.7,3.05,7.37,11.19,15,11.86-7.84,1.93-2,9.11-5.89,13.82C673.55,272.58,669.49,264.63,666.13,256.38Z" transform="translate(-23.1)"/><path class="cls-36" d="M757.86,329.55c-5.6-6.67-13.12-10.34-21-13.56-2.1-.87-5.28-.82-4.66-4.54a51.2,51.2,0,0,1,26.83,16C760.38,328.94,760.23,329.08,757.86,329.55Z" transform="translate(-23.1)"/><path class="cls-37" d="M736.42,369.24c0-6.44-4.75-9.28-9.08-12.71-2.08-1.64-6.22-1.17-6.08-5.34,10.38,2.84,17.22,9,19.15,20.07C738,372.51,737.65,370,736.42,369.24Z" transform="translate(-23.1)"/><path class="cls-38" d="M706.59,239.74c-6.48,2.07-8.47,9.42-14.36,12.17,4.88-8.5,11.16-15.47,20.61-19.65.39,2.52-.77,3.74-1.88,5Z" transform="translate(-23.1)"/><path class="cls-39" d="M728.67,307l-8.53,1.48c-2.59-2.32-6-2.27-9.09-3,1.16-2.25,3.17-2.9,5.51-2.92,5.05,1,10.57-1.82,15.29,1.88Z" transform="translate(-23.1)"/><path class="cls-40" d="M712.77,313.5c-7.75-1.88-15.24.56-22.83,1.4a34.73,34.73,0,0,1,21-5.06C713.4,310,716.09,310.37,712.77,313.5Z" transform="translate(-23.1)"/><path class="cls-41" d="M731.85,304.39c-5-1.46-10.53,1.44-15.29-1.88a2.47,2.47,0,0,0,.39-1.11c4.92-.22,9.83-.52,14.74-.57,1.1,0,3.38-.89,3,1.57C734.62,303.18,732.86,303.73,731.85,304.39Z" transform="translate(-23.1)"/><path class="cls-42" d="M736.63,290.59a4.47,4.47,0,0,1-3.5-4.33H741C740.67,289.34,738.62,289.93,736.63,290.59Z" transform="translate(-23.1)"/><path class="cls-43" d="M644,535.07c3.79-3.15-.08-7.94,2.43-11.37a5.22,5.22,0,0,1,2.94,2.87c1.09,1.81,2.62,1.95,4.47,1.31a83.45,83.45,0,0,0,41.34-30.5c1.26-1.9,2.82-3.63,3.31-6a7,7,0,0,1,1.39-2.6,14.08,14.08,0,0,0,3.39-4.79c2-7,3.83-14,7-20.65a11.65,11.65,0,0,0,.85-6.31,6.59,6.59,0,0,1,.59-4.49c1.37-7.37,1.13-14.82,1.25-22.26-1.41-9.14-.86-18.51-3.49-27.52a6.88,6.88,0,0,1,1.5-6.21c2.82.84,5.61,2.15,8.49,2.46,14.11,1.51,17.3,11.09,18.15,23.12.69,9.89.58,19.74.31,29.61-3.12,21.63-10.28,41.42-26,57.32A80,80,0,0,1,694.6,522c-13.79,7.94-27.48,16-41.24,24-3,1.73-5.85,3.86-9.57,3.75C641.8,544.81,639.91,539.91,644,535.07Z" transform="translate(-23.1)"/><path class="cls-44" d="M590.42,392.45c4.64,9.52,17.81,14.16,31.29,11,1-.22,1.89-.57,2.83-.86,6.62,1.24,8.36,3.92,6.51,10-2.9,1.74-5.71.36-8.62-.17-7.22-1.32-11.61,3.17-10,10.38a29.65,29.65,0,0,0,5.5,12c1.8,2.27,2.59,4.33.79,6.64-3.5,4.48-6.72,9.22-10.59,13.36-2.93,3.13-6.54,4.64-10.39,1-2.41-2.31-5.55-3.19-8.6-4.19a4.36,4.36,0,0,0-2.75.59c-2.84,2.78-4.36,8.43-9.23,7-4.56-1.3-2.15-6.89-3.65-10.31a6.73,6.73,0,0,1-.2-3.63c2.24-16.52,5.91-32.63,13.1-47.78C587.37,395.51,587.91,393.18,590.42,392.45Z" transform="translate(-23.1)"/><path class="cls-45" d="M700.49,492a10.23,10.23,0,0,1-2.87,6c-6.87,4.39-11.64,11.8-20.11,13.93-1.89.47-3.68,1.31-5.7,1.19a6.43,6.43,0,0,1-4.55-2.78c-.8-2.9,1-4.69,3-6.06,3.36-2.3,5.35-4.75,3.46-9.1s-3.87-8-9.48-7a4.09,4.09,0,0,1-1.44-.21,7.91,7.91,0,0,1-4.4-3c.14-4.71,2.75-9.1,1.74-14-.3-1.49-.48-2.79-1.71-3.74a7.56,7.56,0,0,0-2.69-1.11c-2-.5-4.18,0-5.85-1.56a2.56,2.56,0,0,1-.23-3.39c5.76-6.25,2.13-10.46-2.93-14.45-1.19-.93-2.18-2-1.81-3.74,1.94-3.4,5.21-2.26,8.1-2.38,2.88.43,4.64,2.62,6.52,4.45,4.84,4.7,7.34,4.85,12.92.58,4.41-3.37.44-5.87-.71-8.75-1.36-3.44-3.61-6.32-5.49-9.46-.86-2.75-1.7-5.51-.37-8.35,5.11-4.06,10.54-3.13,16.05-1,1.31,2.62-.33,4.61-1.28,6.88-1.9,4.58,1,8,3.46,11.35,2.29,3.16,5,1,7.31.07s6.15-2,5.22-5.18c-1.17-4.05-2.54-8.74-7.57-10.08-2.11-.57-4.5-.25-5.8-2.57a3.62,3.62,0,0,1,.62-3.07l9.2-6.89c3.53-.43,6-3.55,9.64-3.74,2.07-.1,4.16.12,5.2,2.14.95,1.85-.43,3.27-1.58,4.59-6.2,7.09-4.44,13.42,4.74,16.59a11.21,11.21,0,0,1,4.39,2.66c2.32,7.66.18,15-1.69,22.33-5.32.92-6.59-3.93-8.62-6.78-4-5.57-7.39-1.67-10.84-.07-4.68,2.16-2.58,5.52-1.13,8.77,1.82,4.08,4.2,5.71,8.71,3.5,3.65-1.79,7.52-4.39,11.74-1,.12,2.14.4,4.32-1.15,6.16-2.39.2-3.46,2.53-5.5,3.35-4.59,1.84-6.45,4.78-3.89,9.66,1.49,2.83.75,6.22,1.79,9.21l-3,4.47c-4.59-1.22-5.14-5.52-6.9-8.94-1.21-2.36-2.47-5.82-5.64-4.67-3.72,1.35-8.79,2.34-9.58,7-.61,3.56,1.38,7.43,4.26,9.72,2,1.58,4.61-.54,6.89-1.34C694.11,491.15,697.24,488.83,700.49,492Z" transform="translate(-23.1)"/><path class="cls-46" d="M590.42,392.45c-4.55,13.22-9.67,26.26-12.3,40.1a72.33,72.33,0,0,0-1.58,13.17c-2,7.24.44,14,2.07,20.93a16.77,16.77,0,0,1,.31,2.11c4.39,14.56,10.57,28.09,22,38.66,2,1.82,4.79,3.94,1.73,7.2C583.51,503,572.65,486,570.8,463.8c-1.92-23,3.36-44.82,12.61-65.78,1.29-2.93,2.53-5.88,3.8-8.82C591.66,386.94,589.25,391.46,590.42,392.45Z" transform="translate(-23.1)"/><path class="cls-47" d="M715.49,430.85c-8.59,1.32-17.32-5.69-18.51-14.66-.29-2.18.74-3.1,2.27-4.09,2.2-1.44,5.09-1.8,7.1-4.6-4.8-1-8.74,5.09-13.25,1.11,1.43-2.59,2.94-5.14,4.29-7.78,4.29-8.42,4.27-8.43,13.55-4.25A90.77,90.77,0,0,1,715.49,430.85Z" transform="translate(-23.1)"/><path class="cls-48" d="M627.45,399.62c2.9-3.82,3-11.24,9.73-10.24,6.94,1,4.08,7.71,5,12.14.39,1.91,1,3.77,1.56,5.65,1.8,3.09-.31,4.57-2.57,5.71s-5.32,1.41-6.81-.75C631.66,408.23,627.87,404.81,627.45,399.62Z" transform="translate(-23.1)"/><path class="cls-49" d="M627.45,399.62c1.7,2.41,3.47,4.76,5.08,7.23,3.66,5.62,5.8,5.71,11.21.32,12.25,8.29,25.71,10.66,40.16,8.33l.18,3.41c-.53,1.39-1.35,2.24-3,1.55-4.47-4.73-9-4.69-13.45,0-9.71.24-19.47.76-29.11-.36-4.23-.5-8.73-2.47-8.58-8.33.72-4.56-2.46-6.79-5.43-9.15Z" transform="translate(-23.1)"/><path class="cls-50" d="M691,387.56l-34,21.63-1.58-2.6c11.21-7.44,22.22-15.2,34.05-21.61Z" transform="translate(-23.1)"/><path class="cls-51" d="M596.47,391.59l31.87-18.37,1.49,2.63L597.9,394.2Z" transform="translate(-23.1)"/><path class="cls-52" d="M677.05,384.72l-27.73,17.86-1.15-1.81,27.74-17.84Z" transform="translate(-23.1)"/><path class="cls-53" d="M602.68,514.62c-4.53-7-11.78-11.5-16-18.89-5-8.69-8.85-17.57-10.06-27.54,8.23-1.16,14.52,4.08,20.75,7.62a56.92,56.92,0,0,0,33,7.78A35.85,35.85,0,0,1,642,484.72c6.91,1.65,14.06-1.07,20.93,1.2,3.22.79,6.52-4.63,9.32-.56,3.16,4.59,7,9.74,6.35,15.34-.57,5.25-7.39,5.68-10.84,9-1.26,3.63-5.36,3.53-7.63,5.83-4.28,1.5-8.29,4-13.1,3.55-3.7.57-3.43-3-4.67-4.74-5.38-7.69-14.08-8.07-17.29.56-3.45,9.24-8.18,6.82-13.94,4.17C608.21,517.74,605.47,516.11,602.68,514.62Z" transform="translate(-23.1)"/><path class="cls-54" d="M644,535.07c.8,4.9,2.67,9.8-.18,14.65a15.94,15.94,0,0,1-16.2-5.51c-3.47-9-1.84-17.43,2.78-25.54,1.44-2.53,3-4.66,6.44-3C642.11,521,642.69,528.18,644,535.07Z" transform="translate(-23.1)"/><path class="cls-55" d="M557.51,498c5.9,2.7,7.28,9.35,11.69,13.35a4,4,0,0,1,3,3.56c1.85,10.86.15,12.7-10.84,11.75-6.77-2.18-10-7.36-11.78-13.83-.93-2.32-.75-4.82-1-7.21C548.09,499.45,550.7,497.37,557.51,498Z" transform="translate(-23.1)"/><path class="cls-56" d="M561.41,526.63c6.32,0,11.24-1.15,8.2-9.42-.34-.93.54-2.3.85-3.47,5.88-2.09,12.4-1.13,18.16-3.79l9.8,7.9C584.8,520.25,574.87,529.64,561.41,526.63Z" transform="translate(-23.1)"/><path class="cls-57" d="M588.62,510c-3.87,6.69-9.2,7.8-18.15,3.79l-1.27-2.42.45-1.83c2.05-6.73,6.88-7.28,12.67-5.69Z" transform="translate(-23.1)"/><path class="cls-58" d="M658.8,512.66a21.37,21.37,0,0,1,8.92-3l4.45,1.67a2.42,2.42,0,0,1-.3,2.76,83,83,0,0,1-21.28,14.21,3.89,3.89,0,0,1-3.54-.42c-.22-1.41-.43-2.82-.65-4.23l3.42-3.28C651.5,516.3,656.27,515.78,658.8,512.66Z" transform="translate(-23.1)"/><path class="cls-59" d="M636.81,515.63c-7.82,4.08-8.74,11.6-9.38,19.15a90.11,90.11,0,0,0,.16,9.43c-5.26-7-3.47-23.75,3.08-29.15C633,513.17,635,512.83,636.81,515.63Z" transform="translate(-23.1)"/><path class="cls-60" d="M557.51,498c-10.18.94-7.14,8.89-7.88,14.83a16.46,16.46,0,0,1-2.36-9C547.33,496.58,550.72,494.7,557.51,498Z" transform="translate(-23.1)"/><path class="cls-61" d="M582.32,503.8c-4.75.73-9.58,1.27-12.67,5.69-.18-2.33-1.57-5.19,2.08-6.05S579,499,582.32,503.8Z" transform="translate(-23.1)"/><path class="cls-62" d="M658.8,512.66c-1.78,4-5.81,5.38-9,7.74L647,519.08C650.73,516.58,654.48,514.11,658.8,512.66Z" transform="translate(-23.1)"/><path class="cls-63" d="M685.4,282c9.25,7.38,9.28,7.42,18.62-.08,5.13-4.12,11-5.32,17.37-4.85q-12,11-24,21.9c-2.45,2.24-4.41,1.91-5.69-1.22C689.57,292.46,687.5,287.2,685.4,282Z" transform="translate(-23.1)"/><path class="cls-64" d="M700.49,492c-4.34,1.76-9.15,2.85-12.89,5.47-4.6,3.21-6.44,2-7.82-2.64a30.82,30.82,0,0,0-1.3-3.47c-4.36-10.16-4.37-10.16,5.31-15.66s10.2-5.44,14.61,5c1.35,3.17,2.37,6.48,3.54,9.73Z" transform="translate(-23.1)"/><path class="cls-65" d="M647.05,527.92l25.12-16.55c8.8-3.83,15.85-11,25.45-13.32A82.8,82.8,0,0,1,652.74,532C649.05,533.15,646.29,533,647.05,527.92Z" transform="translate(-23.1)"/><path class="cls-66" d="M713.66,457.6c-2.8,1-5.58,2.06-8.41,2.94-3.6,1.11-7.12,6-10.65,2.94-4.25-3.65-5.9-9.61-8-14.89-.89-2.27,1.56-2.67,2.94-3.55,13.05-8.27,13.05-8.27,24.25,8.14C713.75,454.65,713.7,456.12,713.66,457.6Z" transform="translate(-23.1)"/><path class="cls-67" d="M704.91,486c-4.64-3.33-5.49-8.79-6.86-13.62-1.45-5.11,8.76-11,14.46-8.6A82.75,82.75,0,0,1,704.91,486Z" transform="translate(-23.1)"/><path class="cls-68" d="M640.72,487.13c-1.67-.43-3.4-1.4-5-1.21-22.3,2.66-40.8-7.19-59.12-17.73h-.06c1.58-5.52,5.56-2.72,8.79-2.56,4.14.21,8.17,4,12.35.33,1.12-5-3.68-6.47-5.69-9.57-1.69-2.6-6.09-4.15-3.46-8.52,2,1,4.08,1.79,6,2.92,9,5.3,9,5.33,15.86-2.8a32.11,32.11,0,0,1,3.36-4c4.63-3.9,4.39-7.24-.42-10.94-3.56-2.73-4.33-7.17-4.76-11.35-1.08-10.46,7.13-16.37,16.81-12.26,1.57.67,3.07,1.49,4.6,2.25,6.42,6.63,14.57,6.52,22.64,5.11,5.78-1,10.64-.2,15,3.58.55,2.5,1.11,5,1.66,7.51,1.31,9.55-1.59,13.36-11.47,15.08-3.52-3.33-8.11.39-11.79-1.77-2.41-2.72-3.18-7.18-7.88-7.46a17.29,17.29,0,0,1-3.36,1.07c-1.19.08-2.39,0-3.58,0-5,1.37-6.64,4.74-6,9.56a33.65,33.65,0,0,1,1.52,6.51c.82,7.12-1.6,10.52-8.67,12.26-.9.22-4.44-1.48-2.23,2.21a5.78,5.78,0,0,1,.37,4c-1.2,2.52-4.73,1.81-5.89,4.33,2.9,4.69,13.78,6.13,18.33,2.37a9.89,9.89,0,0,0,2.38-2.83c.86-1.84,2.55-3.09,3.44-4.9,1.35-2,3.6-2.7,5.57-3.8,1.41-.83,2-2.57,3.56-3.21,2.68-.85,4.52.49,6.17,2.34l7.6.11c.4,4.42-3.81,4.15-6,6-3.13,2.7-9.66,2.36-8.44,9.06,1.16,1.92,3.48,3.23,3.19,5.92C645.25,487.72,642.5,486.28,640.72,487.13Z" transform="translate(-23.1)"/><path class="cls-69" d="M603.07,469.77c-6.82,3.69-13.12-.16-19.63-1.28-2.24-.38-4.48-3.45-6.9-.31-2.85-7.49-1.59-15,0-22.46v11.76c6.14-1.36,3.63-10.09,10.37-9.58,2.2,5.13,7,8,10.61,11.87C600.23,462.71,602.62,465.65,603.07,469.77Z" transform="translate(-23.1)"/><path class="cls-70" d="M603.07,469.77c-3.46-7.3-9.31-12.54-15.4-17.51-1.7-1.39-3.3-2.41-.76-4.36l1.62,0c1.86,5.65,7.94,7.58,10.85,12.33C601.21,463.18,605,465.36,603.07,469.77Z" transform="translate(-23.1)"/><path class="cls-71" d="M681.11,420.46l3-1.55c3.18.34,6.27-4.68,9.41-.45,3.54,4.77,7.29,9.76,8.19,15.65.45,2.89-4.13,2.87-6.4,4.07-11.9,6.27-11.38,5.84-17.85-6.27C674.08,425.62,675.5,422.87,681.11,420.46Z" transform="translate(-23.1)"/><path class="cls-72" d="M680.16,449.63A3.52,3.52,0,0,1,684,451.8c2.12,4.17,4.23,8.34,6.22,12.56a4.53,4.53,0,0,1,.15,2.8c-.37,1.42-15,9.3-16.54,9.15-1.75-.16-2.47-1.39-3.06-2.8-.67-1.59-1.5-3.13-2-4.76-1-3.33-5.15-6.19-2.43-10.11C669.71,453.75,675.85,452.75,680.16,449.63Z" transform="translate(-23.1)"/><path class="cls-73" d="M657.18,441c7.18-1.45,10.48-6.5,12.14-13.07,2.68,3.85,5.27,7.76,8,11.54,3.27,4.45,1.61,7-2.83,9.23-12.3,6.05-12.26,6.12-20.34-6.07C654.09,440.08,655.64,440.55,657.18,441Z" transform="translate(-23.1)"/><path class="cls-74" d="M645.69,484.36l-6.56-2.89c-2.42-4.88,1.63-6.47,4.46-8.57,5.09-3.79,11.63-5,16.54-9.13,4.83,4.44,2.74,10.74,4.11,16.11.86,3.33-3.33,2.84-5.17,4.17C654.68,487,650.21,486.93,645.69,484.36Z" transform="translate(-23.1)"/><path class="cls-75" d="M649.78,463.7c-3.06,2.38-4.48.4-5.69-2.14-4.69-3.54-4.33-9-4.84-13.89-.37-3.51,1.9-5.37,5.69-3.68,8.15-.49,10.17,6.41,12.29,11.62C659.56,461.36,651.49,460.15,649.78,463.7Z" transform="translate(-23.1)"/><path class="cls-76" d="M644.94,444c-3.43-.67-4.41.83-3.7,4,1,4.5,1.9,9,2.85,13.54l-1.74,5a4.4,4.4,0,0,1-3.15-1.37c-1.62-1.83-2.3-4.23-4.34-5.89-11.74-9.56-11.73-15.12-.2-25l1.85-3.71c4.8,1.41,5.92,6.93,10.1,9,3.16,3.23,7.37-1.53,10.57,1.38l-3,1.63Z" transform="translate(-23.1)"/><path class="cls-77" d="M660.13,463.77c-2.46,7.21-10.72,5.56-15.28,9.91-2.51,2.39-5.49,3.91-5.72,7.79-5.41-3.06-1.47-5.47.76-7.55,5-4.69,11.94-6.24,17.49-10.11Z" transform="translate(-23.1)"/><path class="cls-78" d="M645.69,484.36l13.38-.31c1.29.58,3.13.05,3.82,1.87-7.34,1.32-14.65,3.12-22.17,1.21Z" transform="translate(-23.1)"/><path class="cls-79" d="M634.66,434.29c.56,2.94-.7,4.76-2.87,6.88-5.12,5-4,12.14,2.72,14.2,5.75,1.75,6.42,5.24,6.58,9.86-8.69,5.37-17.62,5.07-26.71,1.18-.84-.46-1.7-.9-2.53-1.39-2.19-1.29-6.76-.86-4.74-5.41,1.79-4.05,4.36-1.13,6.59-.09,3.91,1.83,7.43.91,9.74-2.44,3-4.36,1.45-8.34-2.23-11.68,1.94-6.46,5.58-11.52,11.88-14.38C633.61,432.11,634.13,433.2,634.66,434.29Z" transform="translate(-23.1)"/><path class="cls-80" d="M633.11,473.58c-.28,6.47-3.4,8.84-10,8.06-6.87-.82-13.63-1.58-20.62-4.6l5.53-6.48c6.58.26,13.16-.37,19.74-.11C630.11,470.54,632.21,471.05,633.11,473.58Z" transform="translate(-23.1)"/><path class="cls-81" d="M614.38,466.41c8.92.11,18,2.44,26.71-1.18l1.26,1.36-6.22,3.4c-7,3.48-13.93,2.09-20.77-.68C615,468.35,614.71,467.38,614.38,466.41Z" transform="translate(-23.1)"/><path class="cls-82" d="M646.61,439.62c-7.83,2-8.37-4.19-10.1-9,2.74-4.42,4.29-.29,5.87,1C644.82,433.6,647,436,646.61,439.62Z" transform="translate(-23.1)"/><path class="cls-83" d="M615.36,469.31c6.9,1,13.81,1.67,20.77.68-.13,1.93-1.83,2.56-3,3.6-8.29-1.51-17,.15-25.07-3C609.62,465.08,613.08,470.64,615.36,469.31Z" transform="translate(-23.1)"/><path class="cls-84" d="M616.92,457.14c-2.31-.53-4.61-1.72-3.93-4.29.58-2.2,2.1-4.87,4.85-5s3.73,2.17,3.75,4.59C621.6,455.45,619.81,456.88,616.92,457.14Z" transform="translate(-23.1)"/><path class="cls-85" d="M633.09,431a67.77,67.77,0,0,0-11.88,14.38c-1.56-.26-3.21-.64-1.61-2.63,3.67-4.57,7.28-9.22,11.31-13.46C632.79,427.34,633,429.53,633.09,431Z" transform="translate(-23.1)"/><path class="cls-86" d="M627.38,427.59c-2.33,3.12-3.5,6-7,5.84a1.46,1.46,0,0,1-1.26-2.12C620.73,428.7,623.2,427.5,627.38,427.59Z" transform="translate(-23.1)"/><path class="cls-87" d="M635.45,443.45c2.77,1.58,2.47,4.55,3.11,7,.46,1.77-.43,2.95-2.36,2.52-2.64-.6-4.4-2.24-4.25-5.16C632.06,445.68,633.55,444.41,635.45,443.45Z" transform="translate(-23.1)"/><circle class="cls-88" cx="100.57" cy="282.42" r="75"/><circle class="cls-89" cx="100.57" cy="282.42" r="56.5"/><path class="cls-90" d="M25.4,286.45q13-14.44,23.19-20.59,13.88-8.37,19.5,1.42,11.41,19.61-8.43,59.9,5.3,13.9,10.72,25.22L56.77,366.78q-1.05-2.44-5.84-15.26L40.75,324.43Q26.53,287.17,25.4,286.45Zm22.87,8.63c.68,2.2,1.4,4.39,2.14,6.56L52.69,308q6.7-10.49,6.32-17.41a3.71,3.71,0,0,0-.4-1.58c-.7-1.17-1.91-1.23-3.62-.2A34.22,34.22,0,0,0,48.27,295.08Z" transform="translate(-23.1)"/><path class="cls-90" d="M87.14,238.68q10.9-6.59,22.74,2.82a45.3,45.3,0,0,1,10.67,12.35,73.53,73.53,0,0,1,7.27,16.92,86.67,86.67,0,0,1,2.85,34.46q-2.49,21.67-15.23,29.37-11,6.63-22.94-2.7a44,44,0,0,1-10.32-12,72.76,72.76,0,0,1-7.29-17.19,87.46,87.46,0,0,1-3-34.5Q74.29,246.43,87.14,238.68ZM98.82,266.4q-5.64,3.41-5.93,16.19a58.53,58.53,0,0,0,2,18.26,32.88,32.88,0,0,0,3.1,7.24,12.82,12.82,0,0,0,6.21,5.64,9.24,9.24,0,0,0,8.38-1q5.76-3.47,6.72-12.32a35.88,35.88,0,0,0-1.54-14.64,44.59,44.59,0,0,0-8.35-15.7Q103.76,263.42,98.82,266.4Z" transform="translate(-23.1)"/><path class="cls-90" d="M114.1,232.93q13-14.44,23.19-20.59,13.88-8.37,19.5,1.42,11.42,19.61-8.44,59.9,5.31,13.9,10.73,25.22l-13.61,14.38q-1.07-2.44-5.85-15.26l-10.17-27.09Q115.23,233.65,114.1,232.93ZM137,241.56c.68,2.21,1.39,4.39,2.14,6.56l2.28,6.33Q148.1,244,147.7,237a3.59,3.59,0,0,0-.39-1.58c-.7-1.17-1.91-1.23-3.62-.2A33.67,33.67,0,0,0,137,241.56Z" transform="translate(-23.1)"/><circle class="cls-88" cx="482.33" cy="265.5" r="44.48"/><circle class="cls-89" cx="482.33" cy="265.5" r="33.51"/><path class="cls-90" d="M461.62,227q11.49-.87,18.37.66,9.39,2.09,7.79,8.58-3.12,13.09-28.14,22.26-3.42,8.13-5.72,15.21l-11.73.6q.56-1.49,3.74-8.94l6.72-15.79Q461.82,227.78,461.62,227Zm6.28,13.06q-.91,1.85-1.77,3.69l-1.61,3.65q7.17-1.75,9.83-4.88a2.18,2.18,0,0,0,.48-.84c.18-.79-.32-1.31-1.47-1.57A20.31,20.31,0,0,0,467.9,240.07Z" transform="translate(-23.1)"/><path class="cls-90" d="M507.67,231.78q7.37,1.64,8.6,10.52a27.07,27.07,0,0,1-.48,9.67A43.62,43.62,0,0,1,512,262.2a51,51,0,0,1-12.88,15.95q-9.94,8.3-18.56,6.38-7.43-1.66-8.73-10.55a25.6,25.6,0,0,1,.48-9.38,42.68,42.68,0,0,1,3.91-10.36,51.67,51.67,0,0,1,12.83-16Q499,229.85,507.67,231.78Zm-6.34,16.68q-3.82-.86-9.17,4.52a34.76,34.76,0,0,0-6.6,8.67,19,19,0,0,0-1.63,4.38,7.59,7.59,0,0,0,.35,5,5.52,5.52,0,0,0,4,3q3.9.86,7.93-2.54a21.25,21.25,0,0,0,5.33-6.91,26.68,26.68,0,0,0,2.85-10.16Q504.66,249.2,501.33,248.46Z" transform="translate(-23.1)"/><path class="cls-90" d="M521.59,240.35q11.49-.87,18.37.66,9.39,2.09,7.79,8.59-3.13,13.08-28.14,22.25-3.42,8.13-5.72,15.21l-11.73.6q.55-1.49,3.74-8.94l6.72-15.79Q521.79,241.12,521.59,240.35Zm6.28,13.06q-.93,1.84-1.77,3.69l-1.62,3.66q7.18-1.77,9.84-4.89a2.18,2.18,0,0,0,.48-.84c.18-.79-.32-1.31-1.47-1.57A20.34,20.34,0,0,0,527.87,253.41Z" transform="translate(-23.1)"/><circle class="cls-88" cx="318.23" cy="466.39" r="44.48"/><circle class="cls-89" cx="318.23" cy="466.39" r="33.51"/><path class="cls-90" d="M284.77,480.64q5.81-10,11-14.76,7-6.54,11.49-1.54,9,10,2.36,35.8,4.77,7.42,9.29,13.33l-6.16,10q-.92-1.29-5.24-8.15l-9.2-14.49Q285.52,480.93,284.77,480.64Zm14.32,2.24c.66,1.2,1.34,2.38,2,3.55l2.09,3.4q2.63-6.9,1.56-10.87a2.32,2.32,0,0,0-.42-.88q-.83-.88-2.13.33A20.11,20.11,0,0,0,299.09,482.88Z" transform="translate(-23.1)"/><path class="cls-90" d="M314.82,445.42q5.52-5.13,13.54-1.11a26.66,26.66,0,0,1,7.69,5.87,43.36,43.36,0,0,1,6.27,8.94,51.32,51.32,0,0,1,5.83,19.66q1.2,12.89-5.27,18.9-5.58,5.18-13.65,1.21a25.88,25.88,0,0,1-7.44-5.71,42.85,42.85,0,0,1-6.32-9.1,51.71,51.71,0,0,1-5.93-19.66Q308.31,451.48,314.82,445.42ZM325,460.1q-2.86,2.67-1.48,10.12a34.79,34.79,0,0,0,3.4,10.35,19.71,19.71,0,0,0,2.68,3.83,7.67,7.67,0,0,0,4.29,2.52,5.47,5.47,0,0,0,4.75-1.59q2.91-2.71,2.4-8a21.06,21.06,0,0,0-2.67-8.31,26.38,26.38,0,0,0-6.75-8.1Q327.47,457.77,325,460.1Z" transform="translate(-23.1)"/><path class="cls-90" d="M329.77,438.82q5.81-10,11-14.76,7-6.54,11.49-1.55,9,10,2.36,35.8,4.77,7.44,9.29,13.34l-6.16,10q-.92-1.29-5.24-8.15L343.28,459Q330.52,439.09,329.77,438.82Zm14.32,2.23c.66,1.2,1.34,2.39,2,3.56l2.09,3.4q2.63-6.92,1.56-10.88a2.26,2.26,0,0,0-.42-.87q-.83-.88-2.13.33A20,20,0,0,0,344.09,441.05Z" transform="translate(-23.1)"/><circle class="cls-88" cx="850.71" cy="426.32" r="44.48"/><circle class="cls-89" cx="850.71" cy="426.32" r="33.51"/><path class="cls-90" d="M816.17,435.26q6.71-9.37,12.29-13.68,7.62-5.86,11.58-.47,8,10.8-1,35.87,4,7.83,8,14.13L840,480.5q-.78-1.37-4.46-8.6l-7.81-15.28Q816.89,435.61,816.17,435.26Zm14.06,3.56c.54,1.25,1.11,2.49,1.69,3.72l1.77,3.58q3.25-6.63,2.56-10.68a2.14,2.14,0,0,0-.34-.91c-.49-.64-1.21-.59-2.15.13A20,20,0,0,0,830.23,438.82Z" transform="translate(-23.1)"/><path class="cls-90" d="M849.36,403q6-4.59,13.59.15a26.73,26.73,0,0,1,7.11,6.56,43.5,43.5,0,0,1,5.41,9.49,51,51,0,0,1,4,20.11q0,12.94-7,18.33-6,4.63-13.7-.06a26,26,0,0,1-6.89-6.38,43.13,43.13,0,0,1-5.44-9.64,51.87,51.87,0,0,1-4.08-20.13Q842.31,408.41,849.36,403Zm8.74,15.56q-3.11,2.38-2.42,9.94a34.81,34.81,0,0,0,2.43,10.62,19.2,19.2,0,0,0,2.31,4.06,7.61,7.61,0,0,0,4,2.91,5.52,5.52,0,0,0,4.87-1.14c2.11-1.62,3.15-4.2,3.14-7.72a21.41,21.41,0,0,0-1.89-8.52,26.51,26.51,0,0,0-6-8.69Q860.8,416.45,858.1,418.54Z" transform="translate(-23.1)"/><path class="cls-90" d="M864.86,397.79q6.71-9.37,12.29-13.67,7.62-5.87,11.58-.47,8,10.78-1,35.86,4.05,7.85,8,14.14L888.71,443q-.78-1.36-4.46-8.6l-7.81-15.28Q865.58,398.15,864.86,397.79Zm14,3.56c.55,1.26,1.12,2.5,1.7,3.73l1.77,3.58q3.25-6.65,2.56-10.69a2.22,2.22,0,0,0-.34-.9c-.49-.64-1.21-.6-2.15.12A20.55,20.55,0,0,0,878.91,401.35Z" transform="translate(-23.1)"/><path class="cls-91" d="M1041.87,68.34c4.31-5.1,9.32-9.49,14.28-13.91,1.91-1.7,2.72-2.9,1.44-5.74-3.67-8.17-.7-15.32,4.86-21.5,10.27-11.41,24-16.09,38.55-18,32.19-4.26,63.46.6,93.68,11.87,44,16.4,77.26,45.37,100.22,86.46,7.25,13,4.5,24.32-4.34,34.3-11.33,12.79-26.28,19.89-42.41,24-34.82,8.93-69.5,18.24-103.62,29.61-38.19,12.73-76,26.5-113.78,40.48-27.6,10.22-54.73,21.71-82.84,30.55a48.51,48.51,0,0,1-16.7,2.55,23.59,23.59,0,0,1-14.27-5.26c-5.87-4.76-6.76-8.84-3.57-15.77a508,508,0,0,1,33.2-60.28,729.4,729.4,0,0,1,54.24-74.08,23.67,23.67,0,0,1,1.75-1.72c3.22-.33,3.74,1.56,3.45,4.15-.63,1.8-2,3.05-3.18,4.51-.55.71-1,1.46-1.56,2.2-3.7,4.78-7.39,9.55-11.49,14-2.18,3.43-4.25,6.92-7.17,9.8a25.55,25.55,0,0,0-2.39,3.45c-22.66,30.94-43.39,63-59.67,97.87-1.09,2.33-3.38,5.13-1.17,7.34s5,0,7.4-1c28.65-11.7,57.07-23.95,85.77-35.54,33.79-13.64,67.77-26.76,102.11-39q14.58-5.19,29.28-10a39,39,0,0,0,4.84-1.77c9.18-3.09,18.56-5.62,27.44-9.6,2.63-.32,5.33-.27,7.78-1.54,12.65-4.52,25.73-7.6,38.49-11.72,2.92-1.29.89-2.56-.09-3.69a86.85,86.85,0,0,1-12-17.67,58.89,58.89,0,0,1-5.93-17.39c-.5-3.11-2-4.36-5.17-4.9-19.2-3.28-34.87-11.77-43.13-30.54-1.54-3.49-4.1-3.21-7-2.8a56.57,56.57,0,0,1-30.27-3.95c-1.84-.78-3.85-1.43-5.26-2.8-4.46-4.32-9.23-4.15-15.08-2.93a68.87,68.87,0,0,1-31.6-.38A7,7,0,0,0,1059,60.5c-5.08,3.52-8.57,9.06-14.54,11.47C1042.47,71.55,1040.71,71,1041.87,68.34Z" transform="translate(-23.1)"/><path class="cls-92" d="M1004.81,116c1.23-2.46-.76-3.15-2.25-4.11,1.59-2.27,1.22-4.81.7-7.21C1001.05,94.43,1006,87,1013,80.57c6.82-6.21,15.13-9.52,24.22-10.83,1.65-.24,3.29-.33,4.66-1.4.14,2.06,1.54,2.72,3.32,3a158.24,158.24,0,0,1,17.56,24.61c3.3,5.67,1.74,12.24-.11,18.37-1.17,2.65-3.55,3.88-6,5a37.22,37.22,0,0,0-8.65,4.9c-4.57,3.86-9.58,3.93-15,2.42-8.47-2.38-16.72-5.4-25-8.24A5.39,5.39,0,0,1,1004.81,116Z" transform="translate(-23.1)"/><path class="cls-93" d="M979.47,65.91c-2.71,3.86-5.19,8.39-9.1,11.79-1.14,1-2.57-.11-3.71-.69-15.4-7.83-30.76-15.71-46.16-23.52-2.23-1.13-3.33-2.54-2.59-5.13,2.71-9.44,7.81-17.12,16.09-22.62,2.35-1.56,4-1.48,6.08.53,12.4,12,24.91,23.94,37.4,35.88C978.44,63.08,979.49,63.93,979.47,65.91Z" transform="translate(-23.1)"/><path class="cls-94" d="M990.25.1c2.61-.54,3.84,1.24,4.65,4,3.64,12.44,7.32,24.87,11.2,37.23,1,3.31.18,4.81-3,6-13.86,5.06-9.7,6-17.8-5.37-6.06-8.53-11.51-17.5-17.45-26.12-2-3-1.79-5,1-7.16C975,3.79,981.68.44,990.25.1Z" transform="translate(-23.1)"/><path class="cls-95" d="M931.18,111.28c-3.82.19-7.67.12-11.44.64s-5.29-1.28-6.1-4.7a31,31,0,0,1,1.49-19c1.07-2.7,2.68-3.87,5.75-3.16q19.65,4.56,39.35,8.83c2.9.64,3.73,2.06,3.18,5-2.37,12.5.8,10.86-12.83,11.46-6.47.29-12.93.72-19.4,1.08Z" transform="translate(-23.1)"/><path class="cls-96" d="M1004.81,116c1.26-.38,2.1.48,3,1,10.13,6.32,21.71,8.75,32.87,12.31a6.34,6.34,0,0,0,5.26-.89c4.22-2.61,8.21-5.58,12.85-7.49,3.12-1.28,2-4.58,2.94-6.9,3-10.56.49-19.63-7-27.65-3-3.24-5.35-7.11-7.92-10.74-.92-1.29-2.35-2.46-1.69-4.38L1057.58,60a7.18,7.18,0,0,1,5.78-.32c11.72,3.47,23.44,2.09,35-.67,3.74-.89,6.78-.66,9.92,1.33,12.15,7.69,25.44,10.26,39.62,8.51,3.95-.49,6.81.43,8,4.69,4.27,14.83,15.76,21.55,29.36,25.71a69.34,69.34,0,0,0,10.23,2.25c3.42.49,5.61,2.34,6,5.71,1.35,12.07,7.74,21.76,14.47,31.34,1,1.45,3.11,2.94,1,5.09-2.56.88-4.83-.35-7.12-1.13-5.13-1.74-10.4-2.92-15.64-4.21-3.49-2.09-5.33-.7-6.63,2.8-1.91,5.12-5.22,9.54-7.63,14.43a6.35,6.35,0,0,1-3.45,3.38c-1.08,1-1.93,2.13-3.5,2.61-8.07,2.47-16.1,5.07-24.15,7.62-1.29.54-2.47.66-2-1.28.39-1.47,1.72-2.41,2.75-3.47,11.72-12.1,13.68-27.1,12.4-42.88a48,48,0,0,0-2.28-12.63c-2.09-8.39-4.27-16.72-10.06-23.58a44.18,44.18,0,0,0-6.45-6.16,7.4,7.4,0,0,0-7.92-1.15c-10.34,4.11-20.52,8.55-30.41,13.66-1.88,1-3.88,2-4.6,4.28-.62,4.65,1.81,8.67,2.62,13a58.88,58.88,0,0,1,1.15,6.34,17.92,17.92,0,0,1-3.35,9.78c-5.75,8.38-3.59,16.63.12,24.91,2.68,5.3,8.25,6.46,13,8.51a179.93,179.93,0,0,0,25.25,8.88c2,.55,4.76.55,5.57,3.38-59.73,20.2-118.25,43.56-176.43,67.79q-19.58,8.16-39.13,16.34c-2.15.89-4.35,1.67-6.55,2.42-1.74.59-3.71,1.32-5.14-.28s-1-3.83-.12-5.66c2.58-5.58,5.17-11.17,8-16.64a618.55,618.55,0,0,1,52.12-83.2,29.58,29.58,0,0,1,2.36-2.53c3.26-3,7.46-4.37,11.45-5.83,5.31-1.93,10.23-4.77,15.67-6.36,3.57-1,3.39-3.37,1.5-5.67-1.69-2-3.13-4.28-5-6.19-1.22-1.26-2.74-2.59-1.45-4.69Z" transform="translate(-23.1)"/><path class="cls-97" d="M1160.45,61.26c-1-1.08-.7-2.46-.76-3.72-.19-3.66-1.81-4.27-4.72-2.31a6.44,6.44,0,0,1-5.19,2.44c-12,.53-23.47-1-34.29-6.51a26.73,26.73,0,0,1-7.82-6,24.58,24.58,0,0,1-1.59-2.94c-.55-1.39-1-2.89-2.84-2.77-2.12.14-2.38,1.8-2.33,3.53,1.16,3-.63,4.37-3.14,5-10.69,2.61-21.35,2.91-31.84-.93-4.65-1.7-5-2.78-4.2-9,2.27-7.38,7.77-11.86,14.14-15.41C1091.2,14.1,1108,12,1125.14,12.49a208.56,208.56,0,0,1,74.3,15.69c36.2,15,64.89,38.8,85.48,72.23.51.83,1,1.68,1.69,2.92-23.21-3.42-39.93,5.81-52,24.71-2.51.93-4.1-.76-5.63-2.19a65,65,0,0,1-18.11-29.11c-1.24-4.13-1-8.46-.25-12.72-.09-1.81.15-4-2.54-3.94-2.21.06-2.25,2-2.53,3.67-.19,1.14-.49,2.26-.75,3.39a3.48,3.48,0,0,1-3.82,1.63c-16.14-2.89-29.52-10.18-38.77-24.16C1161.53,63.52,1161.78,62,1160.45,61.26Z" transform="translate(-23.1)"/><path class="cls-98" d="M924.71,262c17.17-7.12,33.76-13.93,50.3-20.86,33.15-13.89,66.45-27.4,100.06-40.12,30.18-11.42,60.56-22.3,91.31-32.16,20.91-6.7,41.91-13.06,63.1-18.8,3.92-1.06,6.16-2.84,6.55-7.43,1.86-22.34,23.58-34.09,38.81-35.38a22.58,22.58,0,0,1,10.73,1.8c6.87,2.88,9.93,8.87,8.34,16.13-2.58,11.75-11.23,18.51-20.53,24.58-14.81,9.66-31.94,12.94-48.72,17.1-44.94,11.15-88.72,26-132.36,41.33-46.48,16.33-92.2,34.68-138.56,51.3-7.16,2.57-14.46,5.14-22.34,4.6C929.26,263.93,927.1,264,924.71,262Z" transform="translate(-23.1)"/><path class="cls-99" d="M1216.87,143.08c-2.39-3.82-4.53-7.83-7.22-11.43a45.52,45.52,0,0,1-9-21.74c-.51-3.93-1.47-6.58-6.74-7.22-10.2-1.25-19.84-4.67-28.09-11.44-5.49-4.5-9.42-9.83-11.06-16.64-1-3.94-2.93-5-6.72-4.4a56.37,56.37,0,0,1-39.9-8.24c-3.23-2-6-2.08-10-1.25-12.27,2.56-24.83,4.65-37.17-.32a12.9,12.9,0,0,0-3.45-.4c2.84-3.91,5.86-4.43,10.91-3.09,11.56,3.07,23.44,2.11,35-1.13,2.86-.8,4.74-.58,7.14,1.44,10.94,9.22,24.08,10.72,37.64,9.31,5.17-.53,7.78,0,10.29,5.48,8.06,17.68,23.43,25.59,41.94,28,3.49.45,4.69,1.43,5.23,4.9,2.18,13.9,9,25.57,18.29,35.92,1.19,1.31,2.9,2.24,3.39,4.21-1.28,1.46-3.05,1-4.62,1.29C1220.5,145.8,1217.43,146.73,1216.87,143.08Z" transform="translate(-23.1)"/><path class="cls-100" d="M1216.87,143.08l5.9,3.24-39,11.73c-2.15.07-1.43-1.57-1-2.3,3.12-5.82,5.62-12,9.22-17.53a3.25,3.25,0,0,1,1.69-1c6.33.21,12.16,2.44,18.06,4.4C1213.38,142.2,1215.14,142.6,1216.87,143.08Z" transform="translate(-23.1)"/><path class="cls-101" d="M1160.86,108.08c4.26,16.43,5,32.65-3.24,48.21a40.09,40.09,0,0,1-9,11.2c-.94.84-1.65,1.3.19,1.65l-4.21,1.61c-12.88-4.17-25.85-8.1-38.15-13.88a16.28,16.28,0,0,1-6.69-5.76c2.08-1.53,3.83,0,5.56.74,8.44,3.56,17,7,25.5,10.23,6.2,2.37,11.22,1.36,15.81-3.52,11.2-11.91,14.52-26.18,13.13-42C1159.54,113.68,1158.31,110.64,1160.86,108.08Z" transform="translate(-23.1)"/><path class="cls-102" d="M1160.45,61.26c5.35,5.57,9.83,11.95,16.33,16.47,7.81,5.43,16.56,8.15,25.69,10,.72.15,1.57-.37,2.36-.58-.17,9-.94,9.38-9.8,7.23-14.55-3.53-25.9-11-32.22-25A24.68,24.68,0,0,1,1160.45,61.26Z" transform="translate(-23.1)"/><path class="cls-103" d="M1210.65,84c.39,18.82,9.36,33,24,44q-1,3-2,6.08c-.6,1.83-.19,4.81-1.81,5.28-2.16.62-3.4-2.15-4.74-3.7-12.06-13.89-17.8-29.94-16.34-48.41A5.07,5.07,0,0,1,1210.65,84Z" transform="translate(-23.1)"/><path class="cls-104" d="M1107.67,45.17c8.9,5.2,18.1,9.64,28.55,10.55,6.25.55,12.54,1.11,18.75-.49.52,4.17-.92,6.22-5.51,6.53-11.76.8-23.19.43-33.37-6.5C1112.36,52.71,1109.24,49.56,1107.67,45.17Z" transform="translate(-23.1)"/><path class="cls-105" d="M1061.73,38.05c-.78,4.69,1.54,6.75,5.89,8,10.18,2.92,20.26,2.6,30.46.26,2.05-.47,2.82-1.41,2.83-3.32,3.55,7.57,3.59,7.76-4.43,9.35-9.45,1.88-19,2.72-28.35-.51C1061.88,49.67,1059.64,44.68,1061.73,38.05Z" transform="translate(-23.1)"/><path class="cls-106" d="M1193.61,137.23c-3.18,7-7.66,13.37-9.87,20.82-2.3,1.3-4.62,2.36-7.25.86q5.48-10.47,11-20.95C1189.57,133.88,1190.55,133.75,1193.61,137.23Z" transform="translate(-23.1)"/><path class="cls-107" d="M981.83,146l7-9.91a131.93,131.93,0,0,1,12.25-5.2c2-.77,4.05-1.47,6.22-.5,2.52,2.28,2,4.81-.58,6-7.75,3.61-15.54,7.14-23.55,10.14C982.67,146.73,982.21,146.32,981.83,146Z" transform="translate(-23.1)"/><path class="cls-108" d="M981.83,146c8-3.45,16-6.86,23.93-10.36,2.55-1.12,3.11-2.8.9-4.89-3.06-2.23-6.29-4.34-6.1-8.82l1.34-1.68c1.55,4,4.91,6.55,7.43,9.77,3.42,4.37,2.76,6.39-2.33,8.26-9.17,3.37-18.19,7.12-27.28,10.71C979.91,147.64,981,146.9,981.83,146Z" transform="translate(-23.1)"/><path class="cls-109" d="M1000.56,121.93c1.5,3.31,4.91,5.3,6.1,8.82-5.15.72-9.57,3.49-14.39,5.13-1.11.38-2.22,1.81-3.48.21Z" transform="translate(-23.1)"/><path class="cls-110" d="M1037.94,74.44c1.79-.18,2.7,1,3.59,2.28,4.29,5.92,8.46,11.93,12.89,17.76,2,2.62,1,3.53-1.57,4.42-2,.71-4.41,1.33-5.79,2.79-5,5.3-10.59,4.14-16.39,2.1-6.43-2.26-12.84-4.56-19.28-6.77-2.31-.8-3.74-2-1.73-4.23,1.66-1.83,1.39-6.78,6.07-4.27,1.9,1,3.68,2.25,5.5,3.43,1.57,1,3.38,2.35,4.82.36,1.76-2.44-.82-3.38-2.24-4.61a8,8,0,0,0-.84-.54c-6.44-4.27-6.44-4.28.33-7.94A49.71,49.71,0,0,1,1037.94,74.44Z" transform="translate(-23.1)"/><path class="cls-111" d="M1038.19,117.14c.75,3.53-1.28,4-5.36,2.77a202.64,202.64,0,0,1-20.77-7c-2.45-1-5.14-8.35-4-10.63.72-1.47,1.67-.53,2.47-.23a213.17,213.17,0,0,0,24.65,8C1038.88,110.89,1037.84,113.57,1038.19,117.14Z" transform="translate(-23.1)"/><path class="cls-112" d="M1061.77,114.07c1.88,5.83,1.25,7.36-4.68,9.32-3.74,1.24-6.48,3.9-9.6,6-2.44,1.63-5,2.33-7.49,1.46-9.15-3.21-18.62-5.52-27.47-9.63a9.63,9.63,0,0,1-4.68-4.17c8.33,2.65,16.67,5.24,25,7.95,5.33,1.75,10.25,2.16,14.66-2.33C1051.46,118.6,1058,118.6,1061.77,114.07Z" transform="translate(-23.1)"/><path class="cls-113" d="M1043,119.37c.39-3.82-1.37-7.1,1.3-9.64a28.62,28.62,0,0,1,11.93-6.8,1.16,1.16,0,0,1,1.57.64c1.19,2.35-1,8.57-3.46,9.72-1.8.83-3.64,1.58-5.39,2.51S1045.56,117.81,1043,119.37Z" transform="translate(-23.1)"/><path class="cls-114" d="M936.14,30.4c1.54.05,2.18,1.12,3,1.9C949.85,42.53,960.51,52.81,971.27,63c1.91,1.8,2.57,3.34.59,5.38-1.66,1.7-2.2,4.8-6.11,2.71-13.2-7-26.61-13.69-40-20.44-1.78-.9-3.15-1.68-2.17-4.12a34.6,34.6,0,0,1,10.6-14.83C934.87,31.17,935.59,30.76,936.14,30.4Z" transform="translate(-23.1)"/><path class="cls-110" d="M987.7,5.13c1.94-.24,2.64.91,3.11,2.52q4.79,16.26,9.67,32.5c.54,1.8.24,3-1.62,3.39-2,.38-4.14,3.35-6.16.39C986,34.18,979.53,24.34,973,14.52c-.69-1-1-2.08.31-3A32.3,32.3,0,0,1,987.7,5.13Z" transform="translate(-23.1)"/><path class="cls-110" d="M923.32,106.84c-4.23,1.09-5.56-1.21-5.47-5.06,0-.5,0-1,0-1.49-.15-9.63.94-10.54,10-8.51,8.89,2,17.79,4,26.7,5.82,2.38.5,3.81,1.14,3.49,4.16s-1.87,3.3-4.29,3.41C943.63,105.65,933.54,106.27,923.32,106.84Z" transform="translate(-23.1)"/><path class="cls-115" d="M1160.86,108.08c.45,9.93,1.78,19.84-.95,29.71a50.6,50.6,0,0,1-12.56,22.3c-4.93,5.09-10.14,6.24-16.63,3.51-10.25-4.31-20.62-8.34-30.93-12.49-4.69-5.69-5.17-19.93-.86-26a19.55,19.55,0,0,0,3.87-10,20.4,20.4,0,0,1,5.45,1.27c1.22,3.23-.58,5.85-1.87,8.47s-.73,4,1.85,5.07c8.61,3.59,17.35,6.82,26.13,9.94,4,1.41,7.05,0,9.91-2.82,11.58-11.23,13.45-30.26,4.29-44.6-.72-1.12-1.5-2.2-2.31-3.26-5.58-7.32-7.08-7.77-15.44-4-9.08,4.09-18.59,7.34-26.83,13.16-2.35-.09-3.64-1.89-5.22-3.24.52-2.49,2.74-3.17,4.58-4.16,10.38-5.6,21.27-10.06,32.11-14.64,3.59-1.51,6.38-.25,9.13,1.94C1154.21,85.9,1158.68,96.36,1160.86,108.08Z" transform="translate(-23.1)"/><path class="cls-92" d="M986.84,214.11c-4.36-3.29-8.21-7.28-13.41-9.43a5.46,5.46,0,0,1-3.36-4.15c-.93-7.15-2.82-14.15,2.2-21.05,6.16-8.46,11.42-17.58,17-26.49,1.9-3.07,4.45-4.4,7.94-3.89,12.84,1.9,23.75,7.27,32,17.59,3.58,4.48,5.63,9.26,4.87,15.18a108.18,108.18,0,0,0-.35,11c-.4,3.66-2.44,5.82-5.84,7.24-10.84,4.54-21.72,9-32.43,13.87A9.56,9.56,0,0,1,986.84,214.11Z" transform="translate(-23.1)"/><path class="cls-100" d="M1059.94,179.05c-4.78-6.65-8.19-14.07-11.89-21.32-1.64-3.24-.36-5.13,2.64-6.15a148.94,148.94,0,0,1,21.16-5.63c3.35-.61,5.78.78,7.82,3.21,5.67,5.19,9.18,11.82,12.29,18.7a2.4,2.4,0,0,1-.35,2.76c-6.84,3.42-14.53,3.87-21.73,6.11C1066.67,177.73,1063.52,179.47,1059.94,179.05Z" transform="translate(-23.1)"/><path class="cls-116" d="M986.84,214.11c3.83.52,7-1.22,10.4-2.66q15.27-6.55,30.65-12.86a10.78,10.78,0,0,0,5.78-5.75c.36,1.61.81,3.21,1.06,4.84.48,3.15-.44,5.34-3.81,6.5A311.83,311.83,0,0,0,998.09,218C992.69,220.6,989.75,217.81,986.84,214.11Z" transform="translate(-23.1)"/><path class="cls-117" d="M1085.77,86.28c-4.07-1.82-8.16-3.59-12.2-5.49-2.77-1.3-3.19-3.42-1-5.5,4.12-4,7.93-8.24,14.91-6.41,4.89,1.28,10.12,1.24,15.2,1.79C1097.12,76,1091.31,81,1085.77,86.28Z" transform="translate(-23.1)"/><path class="cls-118" d="M942.74,231c-1-9.58,3.83-15.13,12.33-18.41,3.09-1.19,5.16-.17,6.83,2.23,1.11,1.61,2.66,3,3,5.06C958.28,225.1,951.44,229.89,942.74,231Z" transform="translate(-23.1)"/><path class="cls-119" d="M1091.71,169.85c-3.08-7.44-8.07-13.77-12-20.69,6.54,1.9,7.55,8.72,11.41,13,1.83,2,2.86,4.78,4.27,7.19,2.36,4,1.75,6.63-2.68,8.13-5.44,1.84-11.1,3-16.62,4.59a26.87,26.87,0,0,1-13.46.83c.51-2.49,2.74-2.6,4.53-3.14,6.61-2,13.28-3.78,20-5.17C1089.83,174,1091.87,173.05,1091.71,169.85Z" transform="translate(-23.1)"/><path class="cls-120" d="M1091.71,169.85c2.67,3.63,2.36,4.63-2.33,5.7-9,2.06-18.06,4.15-26.79,7.35-2.46-.2-2.81-1.85-2.65-3.85,5.19-3.63,11.52-3.89,17.31-5.76C1082,171.76,1086.88,171,1091.71,169.85Z" transform="translate(-23.1)"/><path class="cls-121" d="M942.74,231l22.16-11.12c2,2.27,1.65,4.34-.88,5.77-5.5,3.1-11,6.24-16.7,9C944.24,236,941.44,235.78,942.74,231Z" transform="translate(-23.1)"/><path class="cls-122" d="M1107.6,116.08c-2.4,3.62-3.53,1-4.8-1-1.38-5.26-2.73-10.52-4.16-15.76-.4-1.46-.86-2.85.12-4.25,2.69-.7,3.85,1.14,5,3,1.91-.29,2.82,1.1,3.31,2.43C1108.92,105.62,1111.26,110.77,1107.6,116.08Z" transform="translate(-23.1)"/><path class="cls-123" d="M1085.77,86.28a40.76,40.76,0,0,1,16.89-15.61l1.82,1.59c1.64,1.16.73,2.54-.11,3.33-4.69,4.41-8.88,9.46-14.83,12.35C1088,88.06,1086.52,88,1085.77,86.28Z" transform="translate(-23.1)"/><path class="cls-124" d="M1089.54,87.94c3.94-3.67,7.91-7.31,11.82-11,1.38-1.31,3.32-2.29,3.12-4.67,2.5.65,4.18,1.55,1.53,4.14-3.4,3.32-6.8,6.64-10.09,10.06C1094.05,88.41,1091.83,88.17,1089.54,87.94Z" transform="translate(-23.1)"/><path class="cls-125" d="M1184.47,108.55c-.23,2.1-1.18,3.45-2.54,3.07a7.79,7.79,0,0,1-5.74-5.55c-.32-1.25.93-2.27,2.16-2.17C1181.54,104.17,1182.76,106.93,1184.47,108.55Z" transform="translate(-23.1)"/><path class="cls-126" d="M1030.55,142.85c-2.09-.16-4.61.08-4.36-2.77s2.77-2.23,4.67-2.25,4-.27,3.94,2.39C1034.73,143.09,1032.28,142.64,1030.55,142.85Z" transform="translate(-23.1)"/><path class="cls-127" d="M1084,120.44a8.21,8.21,0,0,1-5.83,4.77,1.89,1.89,0,0,1-2.15-2.13c.52-3.08,3-4.55,5.6-5.5C1082.84,117.1,1083.87,118.46,1084,120.44Z" transform="translate(-23.1)"/><path class="cls-128" d="M1043.93,92c-.62,2.16-2.2,2.8-4,1.28a57,57,0,0,1-7-7c-1.47-1.78-.84-3.55,1.55-4C1036.26,81.89,1044.05,90,1043.93,92Z" transform="translate(-23.1)"/><path class="cls-114" d="M1107.6,116.08c.69-6.42.28-12.6-3.86-18-.22-2.52,2-2.94,3.47-3.64,9.5-4.41,19.08-8.66,28.59-13a5.07,5.07,0,0,1,5.9.79c18.08,14.14,19,42.48,1.85,57.47-2.46,2.15-4.89,3.26-8.15,2-10.09-3.87-20.19-7.72-30.34-11.42-2.65-1-2.26-2.1-1-4A19.74,19.74,0,0,0,1107.6,116.08Z" transform="translate(-23.1)"/><path class="cls-129" d="M1136.87,152.64c0,2.14,0,3.46,0,4.79,0,2-.76,2.63-2.81,1.95-10.25-3.4-20.2-7.56-30.06-11.92-1.91-.84-3.82-10.83-2.57-12.32.91-1.07,1.87-.35,2.69,0,10.11,4.23,20.32,8.15,30.76,11.5C1138.72,147.87,1136.41,151.14,1136.87,152.64Z" transform="translate(-23.1)"/><path class="cls-130" d="M1142.23,157.64c-1-6.28-.73-11.33,5.07-15,3.07-1.94,5.2-5.36,7.92-8.29C1154.47,142.62,1149.55,151.5,1142.23,157.64Z" transform="translate(-23.1)"/><path class="cls-114" d="M996.79,154c13.18,2.27,24.12,8,31.23,19.88,1.14,1.91.88,2.88-1.2,3.74q-18,7.37-35.86,14.89c-1.29.54-2.55,1-3.68-.17a27.41,27.41,0,0,0-10.36-6.7c-2-.7-1.33-1.92-.57-3.11q8.55-13.44,17.1-26.88A3.16,3.16,0,0,1,996.79,154Z" transform="translate(-23.1)"/><path class="cls-129" d="M990.31,209c-.67-12.88-2-9.94,8.12-14.25,8.86-3.77,17.8-7.34,26.64-11.16,3.07-1.33,3.83-.82,3.94,2.66.15,4.8-1.3,7.37-6.1,9.16C1012.05,199.42,1001.49,204.24,990.31,209Z" transform="translate(-23.1)"/><path class="cls-131" d="M984.59,205.36c-4.9-3.52-11.69-4.26-10.73-12.31.3-2.58.63-3.12,3.13-2.09C983.49,193.65,985.35,196.73,984.59,205.36Z" transform="translate(-23.1)"/><path class="cls-132" d="M1135.4,114.77c-2.48,0-5,0-7.43,0-1.45,0-2.65-.71-2.83-2.25-.22-1.89,1.12-2.7,2.72-2.86a94.4,94.4,0,0,1,16.81.21,2.25,2.25,0,0,1,2.34,2.58c-.09,1.68-1.31,2.26-2.7,2.3C1141.34,114.84,1138.37,114.77,1135.4,114.77Z" transform="translate(-23.1)"/><path class="cls-133" d="M1129.87,94c2.25-.25,3.62-.15,4.05,1.47.48,1.81-.59,2.86-2.2,3.28-5,1.3-10,2.49-14.92,3.77-1.74.45-3,0-3.45-1.78-.4-1.58.58-2.57,2-2.94C1120.43,96.41,1125.56,95.12,1129.87,94Z" transform="translate(-23.1)"/><path class="cls-134" d="M1123.42,124.21c3.39.91,7.72,2,12,3.26a2.49,2.49,0,0,1,2,3c-.44,1.88-2,2-3.56,1.65-4.18-1-8.35-2.05-12.54-3-1.66-.39-2.83-1.24-2.44-3.06S1120.88,124.05,1123.42,124.21Z" transform="translate(-23.1)"/><path class="cls-135" d="M1005.94,180.51c-1.72.26-2.52-.26-3-1.24a2.26,2.26,0,0,1,.81-3.05q5.37-3.53,10.82-6.91a2.44,2.44,0,0,1,3.18.34,1.83,1.83,0,0,1,.31,2.66C1014.42,175.92,1009.72,178,1005.94,180.51Z" transform="translate(-23.1)"/><path class="cls-136" d="M990.28,179c-1.81-.26-3-1.49-2.25-3.06a27.78,27.78,0,0,1,7.19-9.33c1.36-1.2,2.87-.24,3.47,1.42S992.09,179,990.28,179Z" transform="translate(-23.1)"/></g></g></svg>