<svg xmlns="http://www.w3.org/2000/svg" viewBox="0 0 387.5 269.07"><defs><style>.cls-1{fill:#bf0203;}.cls-2{fill:#c81d03;}.cls-3{fill:#c81d04;}.cls-4{fill:#c91e04;}.cls-5{fill:#c91d04;}.cls-6{fill:#fae83d;}.cls-7{fill:#f1ae18;}.cls-8{fill:#ee7f0c;}.cls-9{fill:#f5d22c;}.cls-10{fill:#ec5d65;}.cls-11{fill:#f2c120;}.cls-12{fill:#ee8009;}.cls-13{fill:#ee800a;}.cls-14{fill:#ed7f0a;}.cls-15{fill:#ed7e09;}.cls-16{fill:#c91f04;}.cls-17{fill:#c91f03;}.cls-18{fill:#f2c123;}.cls-19{fill:#ea5b61;}.cls-20{fill:#faf475;}.cls-21{fill:#f9e63c;}.cls-22{fill:#f2c01f;}.cls-23{fill:#f8e43b;}.cls-24{fill:#faf575;}.cls-25{fill:#c81d02;}.cls-26{fill:#f2c11f;}.cls-27{fill:#ec5e65;}.cls-28{fill:#ec5e64;}.cls-29{fill:#f3c323;}.cls-30{fill:#ca1e04;}.cls-31{fill:#c91f05;}.cls-32{fill:#c00603;}.cls-33{fill:#c91e05;}.cls-34{fill:#f0bb21;}.cls-35{fill:#ca2b07;}.cls-36{fill:#ce350a;}.cls-37{fill:#c82c05;}.cls-38{fill:#ca2607;}.cls-39{fill:#f9e73d;}.cls-40{fill:#f7e13b;}.cls-41{fill:#f6e23c;}.cls-42{fill:#cc300c;}.cls-43{fill:#ca2104;}.cls-44{fill:#c92606;}.cls-45{fill:#ca2507;}.cls-46{fill:#ca2707;}</style></defs><g id="Layer_2" data-name="Layer 2"><g id="Layer_1-2" data-name="Layer 1"><path class="cls-1" d="M130.32,68.34c4.31-5.1,9.32-9.49,14.28-13.91,1.91-1.7,2.72-2.9,1.44-5.74-3.67-8.17-.7-15.32,4.86-21.5,10.27-11.41,24-16.09,38.54-18,32.2-4.26,63.47.6,93.69,11.87,44,16.4,77.26,45.37,100.21,86.46,7.26,13,4.51,24.32-4.33,34.3-11.33,12.79-26.29,19.89-42.41,24-34.82,8.93-69.5,18.24-103.62,29.61-38.2,12.73-76,26.5-113.78,40.48-27.6,10.22-54.73,21.71-82.84,30.55A48.51,48.51,0,0,1,19.66,269a23.59,23.59,0,0,1-14.27-5.26C-.48,259-1.37,254.93,1.82,248A508,508,0,0,1,35,187.72a727.88,727.88,0,0,1,54.24-74.08A23.67,23.67,0,0,1,91,111.92c3.21-.33,3.74,1.56,3.45,4.15-.63,1.8-2,3.05-3.19,4.51-.54.71-1,1.46-1.55,2.2-3.7,4.78-7.39,9.55-11.49,14-2.18,3.43-4.25,6.92-7.17,9.8a26.56,26.56,0,0,0-2.4,3.45C46,181,25.28,213.07,9,247.89c-1.09,2.33-3.38,5.13-1.17,7.34s5.05,0,7.4-1c28.65-11.7,57.07-23.95,85.77-35.54,33.78-13.64,67.77-26.76,102.11-39q14.58-5.19,29.27-10a38.56,38.56,0,0,0,4.85-1.77c9.18-3.09,18.56-5.62,27.44-9.6,2.62-.32,5.33-.27,7.78-1.54,12.64-4.52,25.73-7.6,38.49-11.72,2.92-1.29.89-2.56-.09-3.69a86.85,86.85,0,0,1-12-17.67,58.89,58.89,0,0,1-5.93-17.39c-.5-3.11-2-4.36-5.17-4.9-19.2-3.28-34.87-11.77-43.13-30.54-1.54-3.49-4.1-3.21-7-2.8a56.57,56.57,0,0,1-30.27-3.95c-1.84-.78-3.85-1.43-5.26-2.8-4.46-4.32-9.23-4.15-15.08-2.93a68.87,68.87,0,0,1-31.6-.38,7,7,0,0,0-7.91,2.49C142.35,64,138.86,69.56,132.89,72,130.92,71.55,129.16,71,130.32,68.34Z"/><path class="cls-2" d="M93.26,116c1.23-2.46-.76-3.15-2.25-4.11,1.59-2.27,1.22-4.81.7-7.21C89.5,94.43,94.4,87,101.43,80.57c6.83-6.21,15.14-9.52,24.23-10.83,1.65-.24,3.28-.33,4.66-1.4.14,2.06,1.54,2.72,3.32,3A158.24,158.24,0,0,1,151.2,95.91c3.3,5.67,1.74,12.24-.12,18.37-1.16,2.65-3.54,3.88-6,5a37.22,37.22,0,0,0-8.65,4.9c-4.58,3.86-9.59,3.93-15,2.42-8.47-2.38-16.72-5.4-25-8.24A5.39,5.39,0,0,1,93.26,116Z"/><path class="cls-3" d="M67.92,65.91c-2.71,3.86-5.19,8.39-9.1,11.79-1.14,1-2.57-.11-3.72-.69C39.71,69.18,24.35,61.3,9,53.49,6.72,52.36,5.62,51,6.36,48.36c2.71-9.44,7.81-17.12,16.09-22.62,2.35-1.56,4-1.48,6.08.53,12.4,12,24.91,23.94,37.4,35.88C66.89,63.08,67.93,63.93,67.92,65.91Z"/><path class="cls-4" d="M78.7.1c2.61-.54,3.84,1.24,4.65,4C87,16.54,90.67,29,94.55,41.33c1,3.31.18,4.81-3,6-13.85,5.06-9.69,6-17.79-5.37-6.06-8.53-11.51-17.5-17.45-26.12-2-3-1.79-5,1-7.16C63.41,3.79,70.13.44,78.7.1Z"/><path class="cls-5" d="M19.63,111.28c-3.82.19-7.67.12-11.44.64s-5.29-1.28-6.1-4.7a31,31,0,0,1,1.49-19c1.07-2.7,2.68-3.87,5.75-3.16Q29,89.58,48.68,93.85c2.9.64,3.73,2.06,3.17,5-2.36,12.5.81,10.86-12.82,11.46-6.47.29-12.93.72-19.4,1.08Z"/><path class="cls-6" d="M93.26,116c1.26-.38,2.09.48,3,1,10.13,6.32,21.71,8.75,32.87,12.31a6.34,6.34,0,0,0,5.26-.89c4.22-2.61,8.21-5.58,12.85-7.49,3.11-1.28,2-4.58,2.94-6.9,3-10.56.48-19.63-7-27.65-3-3.24-5.35-7.11-7.93-10.74-.91-1.29-2.34-2.46-1.68-4.38L146,60a7.18,7.18,0,0,1,5.78-.32c11.72,3.47,23.44,2.09,35-.67,3.74-.89,6.79-.66,9.93,1.33,12.15,7.69,25.44,10.26,39.62,8.51,4-.49,6.81.43,8,4.69,4.27,14.83,15.75,21.55,29.36,25.71A69.49,69.49,0,0,0,284,101.5c3.43.49,5.62,2.34,6,5.71,1.36,12.07,7.75,21.76,14.47,31.34,1,1.45,3.12,2.94,1,5.09-2.57.88-4.83-.35-7.12-1.13-5.13-1.74-10.4-2.92-15.64-4.21-3.49-2.09-5.33-.7-6.63,2.8-1.91,5.12-5.22,9.54-7.63,14.43a6.35,6.35,0,0,1-3.45,3.38c-1.08,1-1.93,2.13-3.5,2.61-8.07,2.47-16.1,5.07-24.15,7.62-1.29.54-2.47.66-2-1.28.39-1.47,1.71-2.41,2.74-3.47,11.73-12.1,13.69-27.1,12.41-42.88a48,48,0,0,0-2.28-12.63c-2.09-8.39-4.27-16.72-10.06-23.58a43.75,43.75,0,0,0-6.46-6.16A7.38,7.38,0,0,0,223.77,78c-10.34,4.11-20.53,8.55-30.41,13.66-1.88,1-3.88,2-4.6,4.28-.62,4.65,1.81,8.67,2.62,13a58.88,58.88,0,0,1,1.15,6.34,17.92,17.92,0,0,1-3.35,9.78c-5.75,8.38-3.59,16.63.12,24.91,2.68,5.3,8.25,6.46,13,8.51a179.93,179.93,0,0,0,25.25,8.88c2,.55,4.76.55,5.57,3.38C173.35,191,114.83,214.31,56.65,238.54q-19.57,8.16-39.13,16.34c-2.15.89-4.35,1.67-6.55,2.42-1.74.59-3.71,1.32-5.14-.28s-1-3.83-.12-5.66c2.58-5.58,5.17-11.17,8-16.64a618.55,618.55,0,0,1,52.12-83.2A28.06,28.06,0,0,1,68.17,149c3.26-3,7.46-4.37,11.45-5.83,5.31-1.93,10.23-4.77,15.67-6.36,3.57-1,3.38-3.37,1.5-5.67-1.69-2-3.13-4.28-5-6.19-1.22-1.26-2.74-2.59-1.45-4.69Z"/><path class="cls-7" d="M248.9,61.26c-1-1.08-.7-2.46-.76-3.72-.19-3.66-1.81-4.27-4.72-2.31a6.45,6.45,0,0,1-5.19,2.44c-11.95.53-23.47-1-34.29-6.51a26.6,26.6,0,0,1-7.82-6,24.58,24.58,0,0,1-1.59-2.94c-.55-1.39-1.05-2.89-2.84-2.77-2.12.14-2.38,1.8-2.33,3.53,1.16,3-.64,4.37-3.14,5-10.69,2.61-21.35,2.91-31.84-.93-4.65-1.7-5-2.78-4.2-9,2.27-7.38,7.77-11.86,14.14-15.41C179.65,14.1,196.45,12,213.59,12.49a208.56,208.56,0,0,1,74.3,15.69c36.2,15,64.89,38.8,85.48,72.23.51.83,1,1.68,1.69,2.92-23.21-3.42-39.93,5.81-52,24.71-2.52.93-4.1-.76-5.63-2.19a64.89,64.89,0,0,1-18.11-29.11c-1.25-4.13-1-8.46-.25-12.72-.1-1.81.15-4-2.54-3.94-2.21.06-2.25,2-2.53,3.67-.19,1.14-.49,2.26-.75,3.39a3.49,3.49,0,0,1-3.82,1.63c-16.14-2.89-29.52-10.18-38.77-24.16C250,63.52,250.23,62,248.9,61.26Z"/><path class="cls-8" d="M13.16,262c17.17-7.12,33.76-13.93,50.3-20.86,33.15-13.89,66.45-27.4,100.06-40.12,30.18-11.42,60.56-22.3,91.31-32.16,20.91-6.7,41.91-13.06,63.1-18.8,3.92-1.06,6.16-2.84,6.55-7.43,1.86-22.34,23.58-34.09,38.81-35.38A22.58,22.58,0,0,1,374,109c6.87,2.88,9.93,8.87,8.34,16.13-2.58,11.75-11.24,18.51-20.53,24.58-14.81,9.66-31.95,12.94-48.72,17.1-44.94,11.15-88.72,26-132.36,41.33-46.48,16.33-92.2,34.68-138.56,51.3-7.16,2.57-14.46,5.14-22.34,4.6C17.71,263.93,15.55,264,13.16,262Z"/><path class="cls-9" d="M305.32,143.08c-2.39-3.82-4.53-7.83-7.22-11.43a45.52,45.52,0,0,1-9-21.74c-.51-3.93-1.47-6.58-6.74-7.22-10.21-1.25-19.84-4.67-28.09-11.44-5.49-4.5-9.42-9.83-11.06-16.64-.95-3.94-2.94-5-6.72-4.4A56.37,56.37,0,0,1,196.6,62c-3.23-2-6-2.08-9.95-1.25-12.27,2.56-24.83,4.65-37.17-.32A12.9,12.9,0,0,0,146,60c2.84-3.91,5.86-4.43,10.91-3.09,11.56,3.07,23.44,2.11,35-1.13,2.85-.8,4.73-.58,7.13,1.44,10.95,9.22,24.09,10.72,37.65,9.31,5.17-.53,7.78,0,10.29,5.48,8.06,17.68,23.43,25.59,41.94,28,3.49.45,4.69,1.43,5.23,4.9,2.18,13.9,9,25.57,18.29,35.92,1.18,1.31,2.9,2.24,3.39,4.21-1.28,1.46-3,1-4.62,1.29C309,145.8,305.87,146.73,305.32,143.08Z"/><path class="cls-10" d="M305.32,143.08l5.9,3.24-39,11.73c-2.15.07-1.43-1.57-1-2.3,3.11-5.82,5.62-12,9.22-17.53a3.25,3.25,0,0,1,1.69-1c6.33.21,12.16,2.44,18.06,4.4C301.83,142.2,303.59,142.6,305.32,143.08Z"/><path class="cls-11" d="M249.31,108.08c4.26,16.43,5,32.65-3.24,48.21a40.27,40.27,0,0,1-9,11.2c-.94.84-1.65,1.3.19,1.65l-4.21,1.61c-12.89-4.17-25.85-8.1-38.15-13.88a16.28,16.28,0,0,1-6.69-5.76c2.08-1.53,3.83,0,5.56.74,8.44,3.56,16.95,7,25.5,10.23,6.2,2.37,11.22,1.36,15.81-3.52,11.19-11.91,14.52-26.18,13.13-42C248,113.68,246.76,110.64,249.31,108.08Z"/><path class="cls-12" d="M248.9,61.26c5.35,5.57,9.83,11.95,16.33,16.47,7.81,5.43,16.56,8.15,25.69,10,.72.15,1.57-.37,2.36-.58-.17,9-.94,9.38-9.8,7.23-14.55-3.53-25.9-11-32.22-25A24.44,24.44,0,0,1,248.9,61.26Z"/><path class="cls-13" d="M299.1,84c.39,18.82,9.36,33,24,44q-1,3-2,6.08c-.6,1.83-.19,4.81-1.81,5.28-2.16.62-3.4-2.15-4.74-3.7-12.06-13.89-17.8-29.94-16.34-48.41A5.07,5.07,0,0,1,299.1,84Z"/><path class="cls-14" d="M196.12,45.17c8.9,5.2,18.1,9.64,28.55,10.55,6.25.55,12.54,1.11,18.75-.49.52,4.17-.92,6.22-5.51,6.53-11.76.8-23.19.43-33.37-6.5C200.8,52.71,197.69,49.56,196.12,45.17Z"/><path class="cls-15" d="M150.18,38.05c-.78,4.69,1.54,6.75,5.88,8,10.19,2.92,20.27,2.6,30.47.26,2.05-.47,2.82-1.41,2.83-3.32,3.55,7.57,3.59,7.76-4.43,9.35-9.45,1.88-19,2.72-28.35-.51C150.33,49.67,148.09,44.68,150.18,38.05Z"/><path class="cls-16" d="M282.06,137.23c-3.19,7-7.66,13.37-9.87,20.82-2.3,1.3-4.62,2.36-7.25.86q5.47-10.47,10.95-20.95C278,133.88,279,133.75,282.06,137.23Z"/><path class="cls-17" d="M70.27,146l7-9.91a131.75,131.75,0,0,1,12.24-5.2c2-.77,4.06-1.47,6.23-.5,2.52,2.28,2,4.81-.58,6-7.75,3.61-15.54,7.14-23.55,10.14C71.12,146.73,70.65,146.32,70.27,146Z"/><path class="cls-18" d="M70.27,146c8-3.45,16-6.86,23.94-10.36,2.55-1.12,3.11-2.8.9-4.89-3.06-2.23-6.3-4.34-6.1-8.82l1.34-1.68c1.55,4,4.91,6.55,7.43,9.77,3.42,4.37,2.76,6.39-2.33,8.26-9.17,3.37-18.2,7.12-27.28,10.71C68.36,147.64,69.43,146.9,70.27,146Z"/><path class="cls-19" d="M89,121.93c1.5,3.31,4.91,5.3,6.1,8.82-5.15.72-9.57,3.49-14.39,5.13-1.12.38-2.22,1.81-3.48.21Z"/><path class="cls-20" d="M126.39,74.44c1.79-.18,2.7,1,3.58,2.28,4.3,5.92,8.47,11.93,12.9,17.76,2,2.62.95,3.53-1.57,4.42-2,.71-4.41,1.33-5.8,2.79-5,5.3-10.58,4.14-16.38,2.1-6.43-2.26-12.84-4.56-19.28-6.77-2.31-.8-3.74-2-1.73-4.23C99.77,91,99.5,86,104.18,88.52c1.9,1,3.68,2.25,5.5,3.43,1.57,1,3.38,2.35,4.82.36,1.76-2.44-.82-3.38-2.25-4.61a9.07,9.07,0,0,0-.83-.54c-6.44-4.27-6.45-4.28.33-7.94A49.71,49.71,0,0,1,126.39,74.44Z"/><path class="cls-21" d="M126.64,117.14c.75,3.53-1.28,4-5.36,2.77-7-2.12-14-4.12-20.77-7-2.45-1-5.14-8.35-4-10.63.72-1.47,1.67-.53,2.47-.23a213.17,213.17,0,0,0,24.65,8C127.33,110.89,126.29,113.57,126.64,117.14Z"/><path class="cls-22" d="M150.22,114.07c1.88,5.83,1.24,7.36-4.68,9.32-3.74,1.24-6.49,3.9-9.6,6-2.44,1.63-5,2.33-7.49,1.46-9.15-3.21-18.62-5.52-27.47-9.63A9.63,9.63,0,0,1,96.3,117c8.33,2.65,16.67,5.24,25,7.95,5.33,1.75,10.25,2.16,14.66-2.33C139.91,118.6,146.44,118.6,150.22,114.07Z"/><path class="cls-23" d="M131.42,119.37c.39-3.82-1.37-7.1,1.3-9.64a28.62,28.62,0,0,1,11.93-6.8,1.16,1.16,0,0,1,1.57.64c1.19,2.35-1,8.57-3.47,9.72-1.79.83-3.63,1.58-5.38,2.51S134,117.81,131.42,119.37Z"/><path class="cls-24" d="M24.59,30.4c1.54.05,2.18,1.12,3,1.9C38.3,42.53,49,52.81,59.72,63c1.91,1.8,2.57,3.34.59,5.38-1.66,1.7-2.2,4.8-6.11,2.71-13.2-7-26.61-13.69-40-20.44-1.79-.9-3.15-1.68-2.17-4.12a34.6,34.6,0,0,1,10.6-14.83C23.32,31.17,24,30.76,24.59,30.4Z"/><path class="cls-20" d="M76.15,5.13c1.94-.24,2.64.91,3.11,2.52Q84,23.91,88.93,40.15c.54,1.8.24,3-1.63,3.39s-4.13,3.35-6.15.39C74.49,34.18,68,24.34,61.42,14.52c-.69-1-1-2.08.31-3A32.3,32.3,0,0,1,76.15,5.13Z"/><path class="cls-20" d="M11.77,106.84c-4.23,1.09-5.56-1.21-5.47-5.06,0-.5,0-1,0-1.49-.15-9.63.94-10.54,10-8.51,8.89,2,17.79,4,26.7,5.82,2.38.5,3.81,1.14,3.49,4.16s-1.87,3.3-4.29,3.41C32.08,105.65,22,106.27,11.77,106.84Z"/><path class="cls-25" d="M249.31,108.08c.45,9.93,1.78,19.84-.95,29.71a50.6,50.6,0,0,1-12.56,22.3c-4.93,5.09-10.14,6.24-16.63,3.51-10.25-4.31-20.62-8.34-30.93-12.49-4.69-5.69-5.17-19.93-.86-26a19.55,19.55,0,0,0,3.87-10,20.4,20.4,0,0,1,5.45,1.27c1.22,3.23-.58,5.85-1.87,8.47s-.73,4,1.85,5.07c8.61,3.59,17.35,6.82,26.13,9.94,4,1.41,7.05,0,9.91-2.82,11.58-11.23,13.44-30.26,4.28-44.6-.71-1.12-1.49-2.2-2.3-3.26-5.58-7.32-7.08-7.77-15.44-4-9.08,4.09-18.59,7.34-26.83,13.16-2.35-.09-3.64-1.89-5.22-3.24.52-2.49,2.74-3.17,4.58-4.16,10.38-5.6,21.27-10.06,32.11-14.64,3.59-1.51,6.38-.25,9.13,1.94C242.66,85.9,247.13,96.36,249.31,108.08Z"/><path class="cls-2" d="M75.29,214.11c-4.36-3.29-8.22-7.28-13.41-9.43a5.46,5.46,0,0,1-3.36-4.15c-.93-7.15-2.82-14.15,2.2-21.05,6.16-8.46,11.42-17.58,17-26.49,1.9-3.07,4.45-4.4,7.94-3.89,12.84,1.9,23.75,7.27,32,17.59,3.58,4.48,5.63,9.26,4.87,15.18a108.18,108.18,0,0,0-.35,11c-.4,3.66-2.44,5.82-5.84,7.24-10.84,4.54-21.72,9-32.43,13.87A9.56,9.56,0,0,1,75.29,214.11Z"/><path class="cls-10" d="M148.39,179.05c-4.78-6.65-8.19-14.07-11.89-21.32-1.64-3.24-.36-5.13,2.64-6.15A148.23,148.23,0,0,1,160.3,146c3.35-.61,5.77.78,7.82,3.21,5.67,5.19,9.18,11.82,12.29,18.7a2.4,2.4,0,0,1-.35,2.76c-6.84,3.42-14.54,3.87-21.73,6.11C155.12,177.73,152,179.47,148.39,179.05Z"/><path class="cls-26" d="M75.29,214.11c3.83.52,7-1.22,10.4-2.66q15.27-6.55,30.65-12.86a10.78,10.78,0,0,0,5.78-5.75c.36,1.61.81,3.21,1.06,4.84.48,3.15-.44,5.34-3.81,6.5A310.94,310.94,0,0,0,86.54,218C81.14,220.6,78.2,217.81,75.29,214.11Z"/><path class="cls-27" d="M174.22,86.28c-4.07-1.82-8.16-3.59-12.2-5.49-2.77-1.3-3.19-3.42-1-5.5,4.12-4,7.93-8.24,14.91-6.41,4.89,1.28,10.12,1.24,15.2,1.79C185.57,76,179.75,81,174.22,86.28Z"/><path class="cls-28" d="M31.19,231c-1-9.58,3.83-15.13,12.33-18.41,3.09-1.19,5.15-.17,6.83,2.23,1.11,1.61,2.66,3,3,5.06C46.73,225.1,39.89,229.89,31.19,231Z"/><path class="cls-29" d="M180.16,169.85c-3.08-7.44-8.07-13.77-12-20.69,6.54,1.9,7.55,8.72,11.41,13,1.83,2,2.86,4.78,4.27,7.19,2.36,4,1.75,6.63-2.68,8.13-5.44,1.84-11.1,3-16.63,4.59a26.82,26.82,0,0,1-13.45.83c.51-2.49,2.74-2.6,4.53-3.14,6.61-2,13.28-3.78,20-5.17C178.28,174,180.32,173.05,180.16,169.85Z"/><path class="cls-30" d="M180.16,169.85c2.66,3.63,2.36,4.63-2.34,5.7-9,2.06-18,4.15-26.78,7.35-2.46-.2-2.81-1.85-2.65-3.85,5.19-3.63,11.52-3.89,17.3-5.76C170.39,171.76,175.33,171,180.16,169.85Z"/><path class="cls-31" d="M31.19,231l22.16-11.12c2,2.27,1.65,4.34-.88,5.77-5.5,3.1-11,6.24-16.7,9C32.69,236,29.89,235.78,31.19,231Z"/><path class="cls-32" d="M196.05,116.08c-2.4,3.62-3.53,1-4.8-1-1.38-5.26-2.74-10.52-4.16-15.76-.4-1.46-.86-2.85.12-4.25,2.69-.7,3.85,1.14,5,3,1.91-.29,2.82,1.1,3.31,2.43C197.36,105.62,199.71,110.77,196.05,116.08Z"/><path class="cls-33" d="M174.22,86.28a40.76,40.76,0,0,1,16.89-15.61l1.82,1.59c1.64,1.16.73,2.54-.11,3.33C188.13,80,183.94,85.05,178,87.94,176.43,88.06,175,88,174.22,86.28Z"/><path class="cls-34" d="M178,87.94c3.94-3.67,7.91-7.31,11.82-11,1.38-1.31,3.32-2.29,3.12-4.67,2.5.65,4.18,1.55,1.53,4.14-3.4,3.32-6.8,6.64-10.09,10.06C182.5,88.41,180.28,88.17,178,87.94Z"/><path class="cls-35" d="M272.91,108.55c-.22,2.1-1.17,3.45-2.53,3.07a7.79,7.79,0,0,1-5.74-5.55c-.32-1.25.93-2.27,2.16-2.17C270,104.17,271.21,106.93,272.91,108.55Z"/><path class="cls-36" d="M119,142.85c-2.08-.16-4.6.08-4.35-2.77s2.77-2.23,4.67-2.25,4-.27,3.94,2.39C123.18,143.09,120.73,142.64,119,142.85Z"/><path class="cls-37" d="M172.4,120.44a8.21,8.21,0,0,1-5.83,4.77,1.89,1.89,0,0,1-2.15-2.13c.51-3.08,3.05-4.55,5.6-5.5C171.29,117.1,172.32,118.46,172.4,120.44Z"/><path class="cls-38" d="M132.38,92c-.62,2.16-2.2,2.8-4,1.28a57.77,57.77,0,0,1-7-7c-1.47-1.78-.83-3.55,1.56-4C124.71,81.89,132.5,90,132.38,92Z"/><path class="cls-24" d="M196.05,116.08c.69-6.42.28-12.6-3.86-18-.23-2.52,1.95-2.94,3.47-3.64,9.5-4.41,19.08-8.66,28.59-13a5.07,5.07,0,0,1,5.9.79c18.08,14.14,19,42.48,1.85,57.47-2.46,2.15-4.89,3.26-8.15,2-10.09-3.87-20.19-7.72-30.34-11.42-2.65-1-2.26-2.1-1-4A19.74,19.74,0,0,0,196.05,116.08Z"/><path class="cls-39" d="M225.32,152.64c0,2.14,0,3.46,0,4.79,0,2-.75,2.63-2.8,1.95-10.25-3.4-20.2-7.56-30.06-11.92-1.91-.84-3.82-10.83-2.57-12.32.91-1.07,1.86-.35,2.69,0,10.1,4.23,20.32,8.15,30.76,11.5C227.17,147.87,224.86,151.14,225.32,152.64Z"/><path class="cls-40" d="M230.68,157.64c-1-6.28-.74-11.33,5.07-15,3.07-1.94,5.2-5.36,7.92-8.29C242.92,142.62,238,151.5,230.68,157.64Z"/><path class="cls-24" d="M85.24,154c13.17,2.27,24.11,8,31.23,19.88,1.14,1.91.88,2.88-1.2,3.74Q97.3,185,79.41,192.5c-1.29.54-2.55,1-3.68-.17a27.41,27.41,0,0,0-10.36-6.7c-2-.7-1.33-1.92-.57-3.11q8.55-13.44,17.1-26.88A3.15,3.15,0,0,1,85.24,154Z"/><path class="cls-39" d="M78.76,209c-.67-12.88-2-9.94,8.12-14.25,8.86-3.77,17.8-7.34,26.64-11.16,3.07-1.33,3.83-.82,3.93,2.66.15,4.8-1.3,7.37-6.1,9.16C100.5,199.42,89.94,204.24,78.76,209Z"/><path class="cls-41" d="M73,205.36c-4.9-3.52-11.69-4.26-10.73-12.31.3-2.58.63-3.12,3.13-2.09C71.94,193.65,73.8,196.73,73,205.36Z"/><path class="cls-42" d="M223.85,114.77c-2.48,0-5,0-7.43,0-1.45,0-2.65-.71-2.83-2.25-.22-1.89,1.12-2.7,2.72-2.86a94.28,94.28,0,0,1,16.8.21,2.25,2.25,0,0,1,2.35,2.58c-.09,1.68-1.31,2.26-2.7,2.3C229.79,114.84,226.82,114.77,223.85,114.77Z"/><path class="cls-43" d="M218.31,94c2.26-.25,3.63-.15,4.06,1.47.48,1.81-.59,2.86-2.2,3.28-5,1.3-9.95,2.49-14.92,3.77-1.74.45-3,0-3.45-1.78-.4-1.58.58-2.57,2-2.94C208.88,96.41,214,95.12,218.31,94Z"/><path class="cls-44" d="M211.87,124.21c3.39.91,7.72,2,12,3.26a2.49,2.49,0,0,1,2,3c-.44,1.88-2,2-3.56,1.65-4.18-1-8.35-2.05-12.54-3-1.66-.39-2.83-1.24-2.45-3.06S209.33,124.05,211.87,124.21Z"/><path class="cls-45" d="M94.39,180.51c-1.72.26-2.52-.26-3-1.24a2.26,2.26,0,0,1,.81-3.05q5.37-3.53,10.82-6.91a2.44,2.44,0,0,1,3.18.34,1.83,1.83,0,0,1,.31,2.66C102.87,175.92,98.17,178,94.39,180.51Z"/><path class="cls-46" d="M78.73,179c-1.81-.26-3-1.49-2.25-3.06a27.78,27.78,0,0,1,7.19-9.33c1.35-1.2,2.87-.24,3.47,1.42S80.54,179,78.73,179Z"/></g></g></svg>