<svg id="Layer_1" data-name="Layer 1" xmlns="http://www.w3.org/2000/svg" viewBox="0 0 1366 390"><defs><style>.cls-1{fill:#f8b63d;}.cls-2,.cls-91,.cls-92{fill:#cd863c;}.cls-3{fill:#632047;}.cls-4{fill:#671d4e;}.cls-5{fill:#651b44;}.cls-6{fill:#5e2a37;}.cls-7{fill:#6c202d;}.cls-8{fill:#6d3162;}.cls-9{fill:#5a151f;}.cls-10{fill:#f6c243;}.cls-11{fill:#cd9241;}.cls-12{fill:#658958;}.cls-13{fill:#66b963;}.cls-14{fill:#65895d;}.cls-15{fill:#64885c;}.cls-16{fill:#67b762;}.cls-17{fill:#64b960;}.cls-18{fill:#64885b;}.cls-19{fill:#68b763;}.cls-20{fill:#63895b;}.cls-21{fill:#67855d;}.cls-22{fill:#6ab766;}.cls-23{fill:#68b766;}.cls-24{fill:#b3d5ae;}.cls-25{fill:#66b462;}.cls-26{fill:#68b863;}.cls-27{fill:#f4db98;}.cls-28{fill:#b4d1b1;}.cls-29{fill:#b5d6b2;}.cls-30{fill:#abc6a4;}.cls-31{fill:#6bb466;}.cls-32{fill:#638958;}.cls-33{fill:#add1a9;}.cls-34{fill:#b5d6b1;}.cls-35{fill:#63885a;}.cls-36{fill:#6a805e;}.cls-37{fill:#afcfa9;}.cls-38{fill:#adc9a6;}.cls-39{fill:#aec8a5;}.cls-40{fill:#6fb669;}.cls-41{fill:#a2c49c;}.cls-42{fill:#b3d4ae;}.cls-43{fill:#a9c7a3;}.cls-44{fill:#ce9140;}.cls-45{fill:#f7c443;}.cls-46{fill:#edb043;}.cls-47{fill:#f8e2a0;}.cls-48{fill:#f7c543;}.cls-49{fill:#f4c644;}.cls-50{fill:#e8b045;}.cls-51{fill:#dbc2cf;}.cls-52{fill:#dabdcd;}.cls-53{fill:#caa8bc;}.cls-54{fill:#f6c344;}.cls-55{fill:#f8c545;}.cls-56{fill:#f7c643;}.cls-57{fill:#c99240;}.cls-58{fill:#f4c545;}.cls-59{fill:#f9e2a1;}.cls-60{fill:#f0d699;}.cls-61{fill:#e6c790;}.cls-62{fill:#e9cc9a;}.cls-63{fill:#663520;}.cls-64{fill:#66b862;}.cls-65{fill:#f8c743;}.cls-66{fill:#f7c646;}.cls-67{fill:#f9c642;}.cls-68{fill:#f8c544;}.cls-69{fill:#661d49;}.cls-70{fill:#f6c76e;}.cls-71{fill:#f3d8b3;}.cls-72{fill:#f8c644;}.cls-73{fill:#f9c744;}.cls-74{fill:#f7c644;}.cls-75{fill:#f6c36d;}.cls-76{fill:#f6c441;}.cls-77{fill:#671e32;}.cls-78{fill:#f5d7af;}.cls-79{fill:#511512;}.cls-80{fill:#f3c461;}.cls-81{fill:#e69e3a;}.cls-82{fill:#4b1523;}.cls-83{fill:#de4151;}.cls-84{fill:#d8a789;}.cls-85{fill:#ef454b;}.cls-86{fill:#e6c89e;}.cls-87{fill:#d13f54;}.cls-88{fill:#df4253;}.cls-89{fill:#f4c000;stroke:#f49e00;stroke-width:14px;}.cls-89,.cls-91,.cls-92{stroke-miterlimit:10;}.cls-90{fill:#f7931e;}.cls-91{font-size:122.92px;}.cls-91,.cls-92{stroke:#000;stroke-width:3px;font-family:BadaBoomBB, BadaBoom BB;}.cls-92{font-size:72.9px;}</style></defs><rect class="cls-1" width="1366" height="389"/><path class="cls-2" d="M758.27,315.59c1.66,4.08,5.77,3.31,8.88,4.3,8.78,2.78,17.57,5.49,24.58,11.84s6.95,12.67-.71,18.48c-9.09,6.88-19.82,10.24-30.68,12.77a359,359,0,0,1-95.94,8.88c-30.67-1.2-61.39-3.36-90.66-14.2a51.92,51.92,0,0,1-11.86-6.08c-10-7-10.15-15-.15-21.8a58.74,58.74,0,0,1,15.38-7.41c2.58-.82,5.35-1.38,6.86-4.05,3.14-.27,3.65,2.44,4.26,4.34,3.57,11.06,12.52,16.47,26.71,12,7.56-2.38,14.84-5.51,22.34-8.07,4.15-1.41,20.6,2.7,23.38,6,1.81,2.15,1.64,4.75,1.29,7.12-2.42,16.55,17.62,23.51,28.39,17.15,20-11.82,40.94-22.21,59.83-36C752.71,319,753.74,314.44,758.27,315.59Z"/><path class="cls-3" d="M696.18,78.17c4.47.06,7.65,3.33,12.55,5.07-1.7-9.72-6.56-17.17-11.84-24.42-1-1.4-2.52-2.51-3.33-4-1.54-2.85-7.21-4.5-4.64-8.11,2-2.83,6.54-.08,9.78.69,7.82,1.87,15.11,5.23,21,10.73,4,3.68,5.87,4.47,8.84-1.31a46.84,46.84,0,0,1,26.2-23.12c1.52-.56,3.32-1.8,4.86-.21s.09,3.25-.6,4.73c-4,8.74-8.71,17.22-9.94,28,3.92-1.76,7.11-3.31,10.39-4.64,9.11-3.72,18.33-3.61,27.73-.93,5.73,1.63,7.62,3.75,3.15,9-4.77,5.64-9,11.77-13.8,18.19,3.21,1.79,6.22,1.18,9,1.64,1.65.27,3.9-.13,4.59,1.75.9,2.47-1.63,3.32-3.07,4.48-2.89,2.32-5.91,4.47-9,6.77,7.34,4.48,7.34,4.48-1.87,12.24,6.51,2.93,12.79,5.6,18.22,9.75a39.89,39.89,0,0,1,12.06,14c.76,1.54,1.92,3.26.66,4.83s-3.2.45-4.79-.07c-8.62-2.8-17.17-5.92-27.83-6.61,4.14,3.78,7.3,6.45,10.21,9.37,2.53,2.54,2.51,4.71-1.48,5.87-4.26,1.25-8.46,2.67-14.23,4.5,10.45,6.24,15.08,14.84,15.93,25.51.16,2.1,1.36,4.81-1.3,6-2.27,1-3.43-1.46-4.78-2.73-4.32-4.08-8.36-8.51-15.44-10.46,4.52,11,10.84,20.47,12.87,31.6-1.66,4.17-3.34,1.06-4.44-.23-2-2.39-2.69-5.73-5-8-8.91-15.84-16.91-32.39-31.23-44.33-6.67-5.56-13.1-12.28-23.16-11-6.18-1.51-12.36-2.19-18.57-.12-15.66,1.27-26.75,11.31-38.49,20.09-1.56,1.16-2.65,2.92-4.51,3.75-2.16.11-4.88,2.29-6-1.56A94.58,94.58,0,0,1,681,138.53c5.2-2.22,5.55-4.29,2.55-8.56-5.4-7.69-13.07-11.93-21.59-14.91-4.65-1.63-9.47-2.79-14.22-4.15,2.19-5.25,6.87-3.47,10.79-3.83,2.58.46,5,1.55,7.53,2.13,4.7,2.65,9.72,4.68,14.54,7.11a67.06,67.06,0,0,1,9.75,11.74c2.52,3.62,5,4.07,8.61,2.31a11.36,11.36,0,0,1,4.5,0c8.69,0,16.56,3.61,24.81,5.54a16.39,16.39,0,0,1,8.09,4.89c.59.45,1.18.89,1.79,1.31,5.65,5.25,12,9.78,16.28,16.44,4.94,7,12.82,9.61,19.93,13.16-1.63-7.84-8.94-8.5-14.29-11.59a5.25,5.25,0,0,1-1.69-2.7c-.15-5.69,3.9-7.24,8.33-8.07,2.54-.48,5.39.19,6.85-2.75-3.9-5.89-10.1-7.08-16.35-8.17a24.73,24.73,0,0,0-5.72-1.1c-2.81-.24-6.28.6-7.45-3.07-1-3.29.19-6.23,2.74-8.53a5.1,5.1,0,0,0,1.76-3.06,5.18,5.18,0,0,0-.29-1.75c-7-3.65-12.12,1.28-17.78,3.7A9.45,9.45,0,0,1,723,125c-1.78-.63-3.39-1.49-5.28.17-2.33,2.06-5.23,2.14-8.17,1.37-10.84-7.83-22.27-14.35-35.79-16.34a3.76,3.76,0,0,1-2.37-1.63,2.5,2.5,0,0,1,.19-2.24c2.77-2.55,6.16.59,9-1l13.92,3.36c-8.09-10.94-18.55-17-28.72-23.56-1.76-1.12-6.25-1.11-3.58-5.41a40.84,40.84,0,0,1,9.07-1.23c2.7,0,3.27,2.51,4.78,3.9.75.71,1.42,1.48,2.13,2.23,9.84,8,20.25,15.35,27.37,26.32,1.74,2.67,4.3,7.39,9.4,4a22.51,22.51,0,0,1,8.33-6.05c1.84-1.43,4.73-3,6-1.42,5,6.13,10.85,1.91,16.31,2,2,0,4-.43,5.91.32,3.13,1.13,6.62,1.44,9.09,4,1.93,3.45,1,6.55-1.1,9.58-1.25,1.8-2.82,3.76.1,5.55,11.18-1,22.11,0,32.59,3.74-4.94-7.23-13-8.92-20.29-12a8.27,8.27,0,0,1-2-.79c-1.73-1.32-3.09-2.87-3.11-5.2-.07-1.09.29-2.21-.07-3.29-3.48-2.22-7.38-.4-11-1.27-5.59-2.18-4-6.44-3-10.46,1.31-5.23,5.69-9.13,6.39-14.62-.3-3.39-2.25-3.25-4.72-2.3a35.65,35.65,0,0,0-11.69,7.7c-7.09,6.7-7.15,6.67-14.52.9-1.2-.94-2.32-1.87-4-1.23-2.34,3.25,1.3,9.79-5.74,10.41-3.69-.75-5.71-3.78-8.2-6.11-4.37-4.11-8.94-7.76-14.72-9.84-2.28-.82-5.72-1.31-4.8-5.33A4.23,4.23,0,0,1,696.18,78.17Z"/><path class="cls-4" d="M644.87,164.92c1.44,1.34,3.22-1.63,4.61.35a8.56,8.56,0,0,0,5.24,3.92c15.4.9,30.24,5,45.27,7.85,16,3,32.26,4.91,47.78,10.19,7.38,1.81,14.82,3.53,20.7,8.86,5.71,1,3.42,8.18,7.83,10.21,3.33,8.25,4.73,16.91,5.21,25.74,0,5.71-1.31,11.35-.92,17.08-.79,3.38,2,7.67-2.57,10.08-4.2-1.74-3.53-5.58-3.67-8.92-.36-9.15.15-18.29-1.43-27.43-1-6.08-3.5-10.13-9.68-11.58-4.12-1-7.74-3.29-11.78-4.47-6.2-2.8-10.71-1.71-13.05,5.3-.7,2.07-2.9,3.33-4,5.27-2.89,3.91-7.07,5.9-11.37,7.74-11,.65-21.93.17-32.59-3.35-3.18-1-5.91-2.15-7.64-5.06-2.71-2.72-3.74-6.07-3.87-9.86-.08-2.1.17-4.81-2.48-5.51s-3.53,2-4.72,3.7a20.34,20.34,0,0,1-3,3.16c-1.51,1.25-2.71,2.8-4.19,4.07A49.34,49.34,0,0,1,647,213.94c-8.23-.53-15.38-3.92-18.68-12.43a12.81,12.81,0,0,0-2.61-5.27,5.11,5.11,0,0,1-.41-3.83c3.28-5.2,3.41-11,3.51-16.91.09-5.15,1.83-9,8-6.92C640.89,169.94,642.41,166.63,644.87,164.92Z"/><path class="cls-5" d="M777.72,258.85c2.26-3.25,1-7,1.6-10.53,4.44,2,.59,6.22,2.31,9a99.81,99.81,0,0,1-23.36,58.3c-6.25,7.16-13.79,12.68-22,17.41q-21.22,12.27-42.39,24.67a23.93,23.93,0,0,1-18.54,2.92c-10.49-2.57-15.84-8.86-15.27-19.56.29-5.45-1.73-7.34-6.53-9.57-7.88-3.65-14.94-3.81-22.54,0-3.3,1.65-7,2.53-10.49,3.75-20.61,7.2-29.07,3.28-36.55-16.89-.14-1-.33-2-.43-2.94-.6-5.77-1.4-11.93,4.68-15.27,6.42-3.52,11.59.21,15.71,4.75s8,1.6,11.22-.32c3.52-2.12-.26-4.68-1.3-6.75-7.83-15.7-9-32.22-6.92-49.34,2.43-19.91,8-38.75,18.33-56l1.78,3.87c2.7,3.64-.06,6.71-1.35,9.66-8.85,20.23-14.09,41.27-12.74,63.39,1.29,21.37,11,38.19,30,49,2.29,1,4.14,2.69,6.44,3.67,5.35,2.27,9.6,3.35,13.86-3,5.61-8.41,14.77-7.9,21.14,0,1.23,1.54,2.09,3.37,3.43,4.84,1,1.08,2.19,2,2.69,3.46.48,2.06-.75,3.59-1.61,5.24-2,3.24.32,8.55-4.87,10.29-4-1.55-4.06-5.6-5.49-8.78-1.27-2.82-1.5-6.13-4-8.32-.92-.38-2-.84-2.82-.23-5.68,4.37-6.61,17.44-1.72,23.4,3.6,4.32,8.33,5.37,13.65,4.77,9.86-3,17.66-9.81,26.61-14.5,7.45-3.9,14.45-8.74,21.87-12.68,23.94-12.74,35.21-33.93,40.75-59.17C773.61,263.92,773.7,260.31,777.72,258.85Z"/><path class="cls-6" d="M696.18,78.17,690.8,80c-5.72,3.27-11.44,3.16-17.18.07l-11.38-.38C673.38,75.23,684.65,73.76,696.18,78.17Z"/><path class="cls-7" d="M680.62,105.28c-2.74,2-5.94,1.1-9,1.41-8,3.84-15.85,1.75-23.72-.41A60.35,60.35,0,0,1,680.62,105.28Z"/><path class="cls-8" d="M648,106.28l23.72.41c.05.41.1.82.12,1.23-3.88,4.88-9-.2-13.27,1.66-3.7-.51-7.35-.63-10.76,1.33-1.23-.06-2.91-.21-2.6-1.66C645.41,108.12,647,107.26,648,106.28Z"/><path class="cls-9" d="M781.63,257.29l-2.31-9a47.45,47.45,0,0,1,2.19-16.27A94.8,94.8,0,0,1,781.63,257.29Z"/><path class="cls-10" d="M747.74,190.16l-95.4-19.1c-2.8-3.43-.05-5.43,2-7.47,10.91-10.67,23.37-18.93,37.85-24a35.08,35.08,0,0,1,21.24,0c15,5.19,22.67,17.57,29.73,30.46,2.14,3.89,3.49,8.19,5,12.37C749.23,185.07,749.67,187.69,747.74,190.16Z"/><path class="cls-11" d="M747.74,190.16c-6.64-20.1-17-37.72-34.28-50.57,17,2,27.66,13.21,37.4,25.67a125,125,0,0,1,17.61,30.83A83.18,83.18,0,0,1,747.74,190.16Z"/><path class="cls-12" d="M718,99.15c6.32-3.65,1.62-9.93,3.51-14.64,3.07-.18,3.64,2.7,5.27,4.28,7.87,15.08,8,15.17,20.59,3.78,4-3.65,8.2-7,13.19-9.21a3.56,3.56,0,0,1,2,.45c-2.32,6-4.76,11.87-6.9,17.88-.81,2.28-3,5.15,1.09,6.79a1.63,1.63,0,0,1-.17,1.87c-1.71,1.25-4.08.74-5.73,2.16-4.91.24-9.79.37-14.55,2.12-2.6,1-6.13,4.17-6-3.26.08-5.63-4.1-.22-6.37-.19-5.3-1.33-4.85-6.5-6.78-10.1A3,3,0,0,1,718,99.15Z"/><path class="cls-13" d="M718.76,100.77c5.45,1.62,2.64,7.34,5.17,10.41l-7.53,5.93c-4.63,1.1-6.72-2.45-8.81-5.26a89,89,0,0,0-31.3-26.11l-1.71-1.4c2.83-4.75,7.49-3.14,11.35-2.72,10.31,1.1,19.46,5,26.63,12.88C714.52,96.67,716.33,99.05,718.76,100.77Z"/><path class="cls-14" d="M736,143.75c-10.12-6.21-21-9.94-33-10.26-1.64-4,2-5,3.9-6.93,1-1,2.32-1,3.5-1.47,4.22-.17,6.83-3.35,10.05-5.39.9-.57,2-2,2.83-.34.39.82-.48,2.23-.78,3.38,1.18,3.41,2.84,4.84,7,3.53,5.32-1.7,10.5-3.82,15.86-5.42,2.47-.74,4.64-1.66,6.67.65-2,3.93-6.21,8.36-5.46,11.66,1.12,5,8,.05,11.48,3.09-2.57,3.8-7.07,2.41-10.47,4C743.37,140.28,739.81,142.42,736,143.75Z"/><path class="cls-15" d="M750.8,44.32c-2.82,9.74-7.65,19.06-6,29.7,2.25,1.93.15,3.93.09,5.89a14.91,14.91,0,0,0-2.8,2.28c-5.53,7.33-10.41,5.5-15-1C728.54,67.2,737.61,57,745,46,746.74,44.84,748.2,42.59,750.8,44.32Z"/><path class="cls-16" d="M746.42,46.82c-5.78,10.27-12.86,19.86-16.23,31.4-.35,1.21-2.06,2-3.15,3l-6.12-5.91c-9.44,1.67-10.68-7-15-11.86l-4.18-5.9c1.78-2.39,3.74-1.36,5.82-.4a58.2,58.2,0,0,1,13.17,9c1.68,1.44,2.7,4.44,5.89,3L732.06,59c3.28-2,4.26-6,7-8.41C741.18,48.74,742.72,45.61,746.42,46.82Z"/><path class="cls-17" d="M797.69,136.63c-13.37-3.66-27-4.94-40.84-4.88-.58-8.44,6.33-14.71,14.95-13.55l.28.33c4.32,3.79,10.25,4.46,14.88,7.69C791.12,129.12,795.9,131.31,797.69,136.63Z"/><path class="cls-18" d="M752.37,160.14l-15.28-15.89c4.55-4.91,10.61-3.85,15.88-2.87,6.47,1.2,13.07,1.69,19.47,3.27,2.8.38,4.8,2.06,6.59,4.08-4.41,1.31-8.86,2.55-13.24,4-2.47.8-5.46,1.12-5.88,4.6C758.16,160.28,754.84,159.07,752.37,160.14Z"/><path class="cls-19" d="M709,127.79l-6,5.7-4.46,0a17.73,17.73,0,0,1-9.13-6.71c-2.47-3.57-6.43-5.9-10.14-8.28l-13.67-7.18c1.08-1.77,2.89-1.75,4.59-1.65C685.52,110.65,698.83,115.9,709,127.79Z"/><path class="cls-20" d="M676.29,85.74c13.53,3.61,24.11,11.52,32.7,22.36,2.42,3,4.94,6,7.41,9-2.83,3.37-5.82,3.09-8.91.39-1.49-1.29-3.53-2.28-4.38-3.89C696.83,101.72,686.29,94,676.29,85.74Z"/><path class="cls-21" d="M762.5,97.62c1.87-5,3.5-10.11,5.66-15,2.08-4.71.51-6.24-4.2-6.06-3.4.14-6.81,0-10.22,0-.06-1,.22-2.28,1.19-2.47,9.4-1.82,18.29-6,28-6.07.72,0,1.28.71,1.82,1.22-3.94,8.13-12.31,13.37-14.69,22.52C769.31,96,767.79,99.28,762.5,97.62Z"/><path class="cls-22" d="M784.79,69.29c-10.34,2.49-20.39,6.2-31,7.32l-8.87,3.3C743,78,744.77,76,744.78,74a5.24,5.24,0,0,1,1.42.2c6.92-1.83,12.24-7.5,19.52-8.32,6.65-.75,13.64-3.56,19.47,2.43A1.46,1.46,0,0,1,784.79,69.29Z"/><path class="cls-23" d="M773.43,146.93c-12.11-.9-24.07-3.9-36.34-2.69a3.69,3.69,0,0,1-1.09-.49c2.3-3.14,4.59-6.29,8.72-7.21,8,1.47,16.63,0,24,4.83C770.82,142.76,774.05,143.21,773.43,146.93Z"/><path class="cls-24" d="M709,127.79c-9-5.58-17.26-12.45-28-15-5.15-1.21-10.15-2.23-15.41-1.45l-7.11-1.78c4.11-3.11,8.89-.76,13.27-1.66,14.89,1.19,27.46,7.6,38.63,17.17Z"/><path class="cls-25" d="M752,121.5l-33,11.9c.13-4.4,2.51-7.33,3.52-10.66,2.57,1.26,4.91.24,7.24-.76,6-2.11,11.94-4.21,18.47-3.35,1.68.22,3.49,0,4.36,2A1.66,1.66,0,0,1,752,121.5Z"/><path class="cls-26" d="M752.37,160.14c1.33-4.09,4.17-4.17,7.54-2.84l1.18,1c3.08,3.06,7.7,3.91,10.63,7s7.51,5.54,4.54,11c-4.54-2.84-9.1-5.52-14.49-6.59C756.61,168.7,755.59,163.27,752.37,160.14Z"/><path class="cls-27" d="M692.22,139.61c-12.86,6.87-25.81,13.62-35.74,24.74-1.78,2-4.28,3.54-4.14,6.71-5.14.14-7.35-1.17-2.86-5.79,9.72-8.92,19.91-17.2,32.14-22.51C685,141.29,688.34,139.47,692.22,139.61Z"/><path class="cls-28" d="M718.76,100.77c-3.76-1.17-5.73-4.56-8.49-7-10.36-9-22.19-12.34-35.69-9.47-1.45-.12-3.15-.31-3.59-1.79-.6-2,1.85-1.52,2.63-2.5L690.8,80c11.33,3.18,20,10.18,27.21,19.17Z"/><path class="cls-29" d="M785.19,68.33c-12-3.85-22.76-.58-33.19,5.25-1.77,1-3.46,4.22-5.79.64,10.88-8.25,22.53-13.85,36.71-10.4C786.53,64.7,786.64,65.09,785.19,68.33Z"/><path class="cls-30" d="M725.23,89l-3.71-4.53c5.41-1.14,6.56,4.15,9.26,6.65,3.59,3.32,5.54,3.42,8.52-.49,5.16-6.76,12.09-10.6,20.8-10.71,2.87,0,5.52.1,2.49,3.86a5.68,5.68,0,0,0-1.36.29c-7.45,3.12-14.63,6.5-20.56,12.33-3.71,3.64-7.84,3.53-11-1.54A57.07,57.07,0,0,0,725.23,89Z"/><path class="cls-31" d="M762.5,97.62c3.27-1,4-5.2,7.6-5.81L773,93.34c1.35,1.3,3.52,1.93,3.51,4.33-3,3-5.87,5.83-10.61,6.07C760,104,759.21,102.08,762.5,97.62Z"/><path class="cls-32" d="M771.8,118.2c-7.27,2-11.74,7.08-14.95,13.55-3,.14-5.09-.18-2.93-4,2.27-4,5.19-7.62,6.05-12.28,2.45-2.77,5.09-4.46,8.53-1.48C768.42,116.36,770.38,117.06,771.8,118.2Z"/><path class="cls-33" d="M726.66,69.23c-1.5,5.11-3.42,1.3-4.8.06C716,64,710.21,58.49,701.78,57.56c-1.46-1.61-3.5-2.78-4-5.75,8.83,1.66,15.78,6.2,22.15,11.91C722.09,65.65,723.58,68.43,726.66,69.23Z"/><path class="cls-34" d="M773.43,146.93c-5.92-5.71-13.36-7.64-21.22-8.57-2.56-.3-5.46.7-7.49-1.82l13.31-.29c8.4,1.79,17,3.3,21,12.48Z"/><path class="cls-35" d="M679.3,118.54c8.57,2.24,14.33,8.09,19.27,15-4.89,2.06-8,1-10.58-4.15C686,125.34,682.26,122.13,679.3,118.54Z"/><path class="cls-36" d="M706,63.46c5.71,3.05,7.38,11.19,15,11.86-7.84,1.93-2,9.11-5.89,13.82C713.39,79.66,709.32,71.71,706,63.46Z"/><path class="cls-37" d="M797.69,136.63c-5.59-6.67-13.12-10.34-21-13.56-2.09-.87-5.28-.82-4.66-4.54a51.27,51.27,0,0,1,26.83,16C800.21,136,800.06,136.16,797.69,136.63Z"/><path class="cls-38" d="M776.26,176.32c0-6.44-4.76-9.28-9.08-12.7-2.08-1.65-6.22-1.18-6.09-5.35,10.38,2.84,17.22,9,19.16,20.07C777.79,179.59,777.48,177.08,776.26,176.32Z"/><path class="cls-39" d="M746.42,46.82C740,48.89,738,56.24,732.06,59c4.88-8.5,11.16-15.47,20.61-19.65.39,2.52-.76,3.74-1.87,5Z"/><path class="cls-40" d="M768.5,114,760,115.51c-2.59-2.32-6-2.27-9.09-3,1.16-2.25,3.17-2.9,5.51-2.92,5.05,1,10.57-1.82,15.29,1.88Z"/><path class="cls-41" d="M752.6,120.58c-7.75-1.88-15.24.56-22.82,1.4a34.68,34.68,0,0,1,21-5.06C753.23,117.1,755.93,117.45,752.6,120.58Z"/><path class="cls-42" d="M771.68,111.47c-5-1.46-10.52,1.44-15.29-1.88a2.61,2.61,0,0,0,.4-1.11c4.91-.22,9.82-.52,14.74-.57,1.09,0,3.38-.88,3,1.57C774.45,110.26,772.69,110.81,771.68,111.47Z"/><path class="cls-43" d="M776.47,97.67A4.48,4.48,0,0,1,773,93.34h7.85C780.51,96.42,778.45,97,776.47,97.67Z"/><path class="cls-44" d="M683.81,342.15c3.78-3.15-.09-7.94,2.42-11.37a5.19,5.19,0,0,1,2.94,2.87c1.09,1.81,2.62,2,4.48,1.31A83.43,83.43,0,0,0,735,304.46c1.27-1.9,2.83-3.63,3.31-6a7,7,0,0,1,1.4-2.6,14,14,0,0,0,3.38-4.79c2-7,3.83-14.05,7-20.65a11.63,11.63,0,0,0,.85-6.3,6.66,6.66,0,0,1,.59-4.5c1.37-7.37,1.13-14.82,1.26-22.26-1.42-9.14-.87-18.51-3.5-27.52a6.88,6.88,0,0,1,1.5-6.21c2.83.84,5.61,2.15,8.5,2.46,14.1,1.51,17.29,11.09,18.14,23.12.7,9.89.58,19.74.31,29.61-3.12,21.63-10.28,41.42-26,57.32a80,80,0,0,1-17.27,12.88c-13.78,7.94-27.47,16-41.23,24-3,1.73-5.85,3.86-9.57,3.75C681.63,351.89,679.75,347,683.81,342.15Z"/><path class="cls-45" d="M630.25,199.53c4.64,9.53,17.82,14.16,31.3,11,1-.22,1.88-.57,2.82-.86,6.62,1.24,8.37,3.92,6.52,10-2.91,1.74-5.72.36-8.62-.17-7.22-1.32-11.62,3.18-10,10.38a29.79,29.79,0,0,0,5.5,12c1.8,2.27,2.6,4.33.8,6.64-3.51,4.48-6.72,9.22-10.6,13.36-2.92,3.13-6.53,4.64-10.39,1-2.4-2.31-5.55-3.19-8.6-4.19a4.36,4.36,0,0,0-2.75.59c-2.83,2.78-4.35,8.43-9.23,7-4.55-1.3-2.15-6.89-3.65-10.31a6.64,6.64,0,0,1-.19-3.63c2.23-16.51,5.91-32.63,13.09-47.78C627.2,202.59,627.74,200.27,630.25,199.53Z"/><path class="cls-46" d="M740.33,299.09a10.34,10.34,0,0,1-2.87,6c-6.88,4.39-11.65,11.8-20.12,13.93-1.89.47-3.68,1.31-5.69,1.19a6.43,6.43,0,0,1-4.56-2.78c-.79-2.9,1-4.69,3-6.06,3.36-2.3,5.35-4.75,3.46-9.1s-3.86-7.95-9.47-6.95a4.31,4.31,0,0,1-1.44-.22,7.93,7.93,0,0,1-4.41-3c.14-4.71,2.75-9.1,1.75-14-.31-1.49-.49-2.79-1.72-3.74a7.75,7.75,0,0,0-2.69-1.11c-2-.5-4.18,0-5.85-1.56a2.56,2.56,0,0,1-.23-3.39c5.77-6.25,2.13-10.46-2.93-14.45-1.18-.93-2.18-2-1.81-3.74,1.94-3.4,5.21-2.26,8.1-2.38,2.88.43,4.64,2.62,6.52,4.45,4.84,4.7,7.34,4.85,12.92.58,4.41-3.37.44-5.87-.7-8.75-1.37-3.44-3.62-6.32-5.5-9.46-.85-2.75-1.7-5.51-.36-8.35,5.1-4.06,10.53-3.13,16-1,1.31,2.62-.32,4.61-1.27,6.89-1.91,4.57,1,8,3.45,11.34,2.29,3.16,5,1,7.31.07s6.15-2,5.23-5.18c-1.17-4-2.55-8.74-7.58-10.08-2.11-.57-4.5-.25-5.8-2.57a3.66,3.66,0,0,1,.62-3.07l9.2-6.88c3.53-.44,6-3.56,9.65-3.75,2.06-.1,4.16.12,5.19,2.14,1,1.85-.43,3.27-1.58,4.59-6.2,7.09-4.44,13.42,4.74,16.59a11.13,11.13,0,0,1,4.39,2.66c2.33,7.66.19,15-1.69,22.33-5.31.92-6.58-3.93-8.61-6.78-4-5.57-7.4-1.67-10.84-.07-4.68,2.16-2.59,5.52-1.14,8.77,1.82,4.08,4.2,5.71,8.72,3.5,3.64-1.79,7.52-4.39,11.73-1,.13,2.15.4,4.32-1.15,6.16-2.38.2-3.46,2.53-5.49,3.35-4.6,1.84-6.46,4.78-3.9,9.66,1.49,2.83.75,6.22,1.79,9.22l-3,4.46c-4.59-1.22-5.14-5.52-6.89-8.94-1.21-2.36-2.48-5.82-5.65-4.67-3.72,1.35-8.78,2.34-9.58,7-.61,3.56,1.38,7.43,4.27,9.72,2,1.58,4.61-.54,6.88-1.34C734,298.23,737.07,295.91,740.33,299.09Z"/><path class="cls-47" d="M630.25,199.53c-4.55,13.22-9.67,26.26-12.3,40.1a72.33,72.33,0,0,0-1.58,13.17c-2,7.25.44,14.05,2.07,20.93a18.85,18.85,0,0,1,.32,2.11c4.39,14.56,10.56,28.09,22,38.66,2,1.82,4.78,3.94,1.72,7.2-19.16-11.59-30-28.65-31.88-50.82-1.92-23,3.36-44.82,12.61-65.78,1.29-2.93,2.54-5.88,3.8-8.82C631.49,194,629.09,198.54,630.25,199.53Z"/><path class="cls-48" d="M755.32,237.93c-8.59,1.32-17.31-5.69-18.51-14.66-.29-2.18.74-3.09,2.27-4.09,2.2-1.44,5.09-1.8,7.1-4.6-4.79-1-8.73,5.09-13.25,1.12,1.44-2.6,3-5.15,4.29-7.79,4.3-8.42,4.27-8.43,13.55-4.25A90.77,90.77,0,0,1,755.32,237.93Z"/><path class="cls-49" d="M667.28,206.7c2.9-3.82,3-11.24,9.73-10.24,6.94,1,4.08,7.71,5,12.14.4,1.91,1,3.77,1.57,5.65,1.79,3.09-.32,4.57-2.58,5.71s-5.31,1.41-6.81-.75C671.5,215.31,667.7,211.89,667.28,206.7Z"/><path class="cls-50" d="M667.28,206.7c1.7,2.41,3.47,4.76,5.08,7.23,3.67,5.62,5.8,5.71,11.22.32,12.24,8.29,25.71,10.66,40.15,8.33l.18,3.41c-.53,1.39-1.34,2.24-3,1.55-4.48-4.73-9-4.69-13.46,0-9.71.24-19.46.76-29.1-.36-4.24-.5-8.74-2.47-8.59-8.33.73-4.56-2.46-6.79-5.43-9.15Z"/><path class="cls-51" d="M730.84,194.64l-34,21.63-1.58-2.6c11.21-7.44,22.23-15.2,34.06-21.61Z"/><path class="cls-52" d="M636.3,198.67l31.87-18.37,1.5,2.63-31.93,18.35Z"/><path class="cls-53" d="M716.89,191.81l-27.73,17.85L688,207.85,715.74,190Z"/><path class="cls-54" d="M642.51,321.7c-4.53-7-11.78-11.5-16-18.89-5-8.69-8.85-17.57-10.06-27.54,8.24-1.16,14.52,4.08,20.75,7.62a56.93,56.93,0,0,0,33,7.78,35.55,35.55,0,0,1,11.59,1.14c6.91,1.64,14.07-1.08,20.94,1.19,3.21.79,6.52-4.63,9.31-.56,3.16,4.59,7,9.74,6.36,15.34-.58,5.25-7.39,5.68-10.85,9-1.26,3.63-5.35,3.53-7.63,5.83-4.27,1.51-8.29,4-13.1,3.55-3.7.57-3.42-3-4.67-4.74-5.37-7.69-14.07-8.07-17.29.56-3.45,9.24-8.18,6.82-13.94,4.17C648,324.82,645.31,323.19,642.51,321.7Z"/><path class="cls-55" d="M683.81,342.15c.79,4.9,2.66,9.8-.18,14.65-6.47,1.29-11.88-.51-16.2-5.51-3.48-9-1.85-17.43,2.77-25.54,1.44-2.53,3-4.66,6.44-3C681.94,328.12,682.53,335.26,683.81,342.15Z"/><path class="cls-56" d="M597.34,305.05c5.9,2.7,7.28,9.35,11.7,13.35a4,4,0,0,1,3.05,3.56c1.84,10.86.14,12.71-10.84,11.76-6.78-2.19-10-7.37-11.78-13.84-.94-2.32-.76-4.82-1-7.21C587.93,306.53,590.53,304.45,597.34,305.05Z"/><path class="cls-57" d="M601.25,333.72c6.31,0,11.23-1.16,8.2-9.43-.34-.93.53-2.3.85-3.47,5.88-2.09,12.39-1.13,18.15-3.79,2.68,2.16,5.35,4.32,9.81,7.9C624.64,327.33,614.7,336.72,601.25,333.72Z"/><path class="cls-58" d="M628.45,317c-3.87,6.69-9.2,7.8-18.15,3.79L609,318.4l.44-1.83c2.06-6.73,6.88-7.28,12.67-5.69Z"/><path class="cls-59" d="M698.63,319.74a21.47,21.47,0,0,1,8.92-3l4.45,1.67a2.41,2.41,0,0,1-.3,2.76,83,83,0,0,1-21.28,14.21,3.89,3.89,0,0,1-3.54-.42c-.21-1.41-.42-2.82-.64-4.22l3.41-3.29C691.33,323.38,696.1,322.86,698.63,319.74Z"/><path class="cls-60" d="M676.64,322.71c-7.82,4.08-8.74,11.6-9.37,19.15a87.46,87.46,0,0,0,.16,9.43c-5.27-7-3.47-23.74,3.08-29.15C672.8,320.25,674.84,319.91,676.64,322.71Z"/><path class="cls-61" d="M597.34,305.05c-10.17.94-7.14,8.89-7.87,14.83a16.38,16.38,0,0,1-2.36-9C587.16,303.66,590.55,301.78,597.34,305.05Z"/><path class="cls-62" d="M622.15,310.88c-4.75.73-9.58,1.27-12.67,5.69-.18-2.33-1.56-5.19,2.09-6.05S618.8,306.11,622.15,310.88Z"/><path class="cls-63" d="M698.63,319.74c-1.77,4-5.8,5.38-9,7.75l-2.83-1.33C690.56,323.66,694.32,321.19,698.63,319.74Z"/><path class="cls-64" d="M725.23,89c9.25,7.38,9.29,7.42,18.63-.08,5.13-4.12,11-5.32,17.37-4.85l-24,21.9c-2.45,2.24-4.42,1.91-5.69-1.22C729.41,99.54,727.33,94.28,725.23,89Z"/><path class="cls-65" d="M740.33,299.09c-4.34,1.76-9.15,2.85-12.9,5.47-4.59,3.21-6.44,2-7.81-2.64a35.26,35.26,0,0,0-1.3-3.47c-4.37-10.16-4.38-10.16,5.3-15.66s10.21-5.44,14.62,5c1.34,3.17,2.36,6.48,3.53,9.73Z"/><path class="cls-66" d="M686.88,335,712,318.45c8.8-3.83,15.86-11,25.46-13.32A82.86,82.86,0,0,1,692.57,339C688.89,340.23,686.12,340.1,686.88,335Z"/><path class="cls-67" d="M753.49,264.68c-2.8,1-5.57,2.07-8.41,2.94-3.6,1.11-7.12,6-10.65,2.94-4.25-3.65-5.9-9.61-8-14.89-.9-2.27,1.55-2.67,2.93-3.55,13-8.27,13-8.27,24.25,8.14C753.58,261.73,753.54,263.21,753.49,264.68Z"/><path class="cls-68" d="M744.74,293.07c-4.64-3.34-5.49-8.8-6.86-13.63-1.45-5.11,8.77-11,14.46-8.6A82.25,82.25,0,0,1,744.74,293.07Z"/><path class="cls-69" d="M680.55,294.21c-1.67-.43-3.4-1.4-5-1.21-22.3,2.66-40.8-7.19-59.12-17.73h0c1.57-5.52,5.56-2.72,8.79-2.56,4.13.21,8.17,4,12.34.33,1.12-5-3.68-6.47-5.69-9.57-1.69-2.6-6.08-4.15-3.45-8.52,2,1,4.08,1.79,6,2.92,9,5.3,8.95,5.33,15.86-2.8a31.33,31.33,0,0,1,3.37-3.95c4.62-3.9,4.39-7.24-.43-10.93-3.56-2.74-4.33-7.18-4.76-11.36-1.08-10.46,7.14-16.37,16.81-12.26,1.57.67,3.07,1.5,4.6,2.25,6.43,6.63,14.57,6.52,22.64,5.11,5.78-1,10.65-.2,15,3.58.56,2.5,1.11,5,1.66,7.51,1.32,9.55-1.59,13.37-11.47,15.08-3.51-3.33-8.1.39-11.79-1.77-2.4-2.72-3.17-7.18-7.88-7.46a17.07,17.07,0,0,1-3.36,1.07c-1.19.08-2.38,0-3.58,0-4.94,1.36-6.64,4.73-6,9.55a33.65,33.65,0,0,1,1.52,6.51c.83,7.12-1.59,10.52-8.66,12.26-.91.22-4.45-1.48-2.24,2.21a5.78,5.78,0,0,1,.37,4c-1.19,2.52-4.73,1.81-5.89,4.33,2.9,4.69,13.78,6.13,18.33,2.38a10.1,10.1,0,0,0,2.39-2.84c.85-1.84,2.54-3.09,3.43-4.9,1.35-2,3.61-2.7,5.58-3.8,1.4-.83,2-2.57,3.56-3.21,2.67-.85,4.52.49,6.17,2.34l7.59.11c.4,4.42-3.81,4.15-6,6-3.14,2.7-9.66,2.36-8.45,9.06,1.17,1.92,3.48,3.23,3.19,5.92C685.09,294.8,682.34,293.37,680.55,294.21Z"/><path class="cls-70" d="M642.9,276.85c-6.82,3.69-13.11-.16-19.63-1.28-2.23-.38-4.47-3.45-6.89-.31-2.86-7.49-1.6-15,0-22.46,0,3.86,0,7.72,0,11.76,6.14-1.36,3.63-10.09,10.37-9.58,2.21,5.14,7,8,10.61,11.87C640.06,269.79,642.45,272.73,642.9,276.85Z"/><path class="cls-71" d="M642.9,276.85c-3.46-7.3-9.31-12.53-15.39-17.51-1.7-1.39-3.31-2.41-.77-4.36l1.62,0c1.86,5.65,7.94,7.58,10.85,12.33C641.05,270.26,644.81,272.44,642.9,276.85Z"/><path class="cls-72" d="M721,227.54l3-1.55c3.18.34,6.28-4.68,9.41-.45,3.54,4.77,7.29,9.76,8.2,15.65.44,2.89-4.14,2.87-6.41,4.07-11.89,6.27-11.38,5.84-17.84-6.27C713.91,232.7,715.33,230,721,227.54Z"/><path class="cls-73" d="M720,256.71a3.5,3.5,0,0,1,3.84,2.18c2.13,4.16,4.24,8.33,6.22,12.56a4.36,4.36,0,0,1,.15,2.79c-.37,1.42-15,9.3-16.54,9.15-1.75-.16-2.47-1.39-3.06-2.8-.67-1.59-1.5-3.13-2-4.76-1.06-3.33-5.16-6.19-2.44-10.11C709.55,260.83,715.69,259.83,720,256.71Z"/><path class="cls-74" d="M697,248.08c7.18-1.45,10.48-6.5,12.14-13.07,2.68,3.85,5.27,7.76,8.05,11.54,3.28,4.45,1.62,7-2.82,9.23-12.31,6-12.27,6.12-20.35-6.07C693.93,247.16,695.48,247.63,697,248.08Z"/><path class="cls-75" d="M685.52,291.44,679,288.55c-2.42-4.88,1.64-6.47,4.46-8.57,5.09-3.79,11.64-5,16.54-9.13,4.83,4.44,2.74,10.74,4.12,16.11.85,3.33-3.34,2.84-5.18,4.17C694.51,294.09,690,294,685.52,291.44Z"/><path class="cls-76" d="M689.62,270.78c-3.07,2.38-4.49.4-5.7-2.14-4.69-3.54-4.32-9-4.84-13.89-.37-3.51,1.9-5.37,5.69-3.68,8.16-.49,10.17,6.41,12.29,11.62C699.4,268.44,691.32,267.23,689.62,270.78Z"/><path class="cls-77" d="M684.77,251.07c-3.43-.67-4.41.83-3.69,4,1,4.5,1.9,9,2.84,13.54l-1.74,5A4.42,4.42,0,0,1,679,272.3c-1.62-1.83-2.29-4.23-4.34-5.89-11.74-9.56-11.72-15.12-.2-25l1.85-3.71c4.8,1.41,5.93,6.93,10.1,9,3.16,3.23,7.37-1.53,10.57,1.38l-3,1.63Z"/><path class="cls-78" d="M700,270.85c-2.45,7.22-10.71,5.56-15.28,9.91-2.51,2.39-5.48,3.91-5.71,7.79-5.42-3.06-1.48-5.47.75-7.55,5-4.69,11.94-6.24,17.49-10.11Z"/><path class="cls-79" d="M685.52,291.44l13.38-.31c1.3.58,3.14.05,3.83,1.87-7.34,1.32-14.66,3.12-22.17,1.21Z"/><path class="cls-80" d="M674.49,241.37c.56,2.94-.7,4.76-2.87,6.88-5.11,5-4,12.14,2.72,14.2,5.75,1.75,6.42,5.24,6.58,9.86-8.68,5.37-17.62,5.07-26.71,1.18-.84-.46-1.7-.9-2.52-1.39-2.2-1.29-6.76-.86-4.75-5.41,1.8-4,4.36-1.13,6.59-.09,3.92,1.83,7.44.91,9.74-2.44,3-4.36,1.46-8.34-2.23-11.68C663,246,666.62,241,672.92,238.1Z"/><path class="cls-81" d="M673,280.66c-.28,6.47-3.4,8.84-10,8.06-6.87-.82-13.63-1.58-20.63-4.6l5.53-6.48c6.58.27,13.16-.37,19.74-.11C669.94,277.62,672,278.13,673,280.66Z"/><path class="cls-82" d="M654.21,273.49c8.93.11,17.95,2.44,26.71-1.18l1.26,1.36-6.22,3.4c-7,3.48-13.92,2.09-20.76-.68Z"/><path class="cls-83" d="M686.44,246.7c-7.82,2-8.37-4.19-10.1-9,2.74-4.42,4.29-.29,5.88,1C684.66,240.68,686.78,243.11,686.44,246.7Z"/><path class="cls-84" d="M655.2,276.39c6.89,1,13.8,1.67,20.76.68-.13,1.93-1.82,2.56-3,3.6-8.3-1.51-17,.15-25.08-3C649.45,272.16,652.91,277.72,655.2,276.39Z"/><path class="cls-85" d="M656.76,264.22c-2.32-.53-4.62-1.72-3.94-4.29.58-2.2,2.1-4.87,4.86-5,2.6-.07,3.72,2.17,3.74,4.6C661.44,262.53,659.64,264,656.76,264.22Z"/><path class="cls-86" d="M672.92,238.1A68.37,68.37,0,0,0,661,252.48c-1.56-.26-3.2-.63-1.6-2.63,3.67-4.57,7.27-9.22,11.31-13.46C672.62,234.42,672.87,236.61,672.92,238.1Z"/><path class="cls-87" d="M667.21,234.67c-2.33,3.12-3.5,6-7,5.84a1.46,1.46,0,0,1-1.25-2.12C660.57,235.78,663,234.58,667.21,234.67Z"/><path class="cls-88" d="M675.28,250.53c2.77,1.58,2.47,4.55,3.11,7,.46,1.77-.43,2.95-2.35,2.52-2.65-.6-4.41-2.24-4.26-5.15C671.89,252.76,673.38,251.49,675.28,250.53Z"/><circle class="cls-89" cx="163.5" cy="89.5" r="75"/><circle class="cls-90" cx="163.5" cy="89.5" r="56.5"/><text class="cls-91" transform="translate(101.17 170.96) rotate(-31.11)">POP</text><circle class="cls-89" cx="545.27" cy="72.58" r="44.48"/><circle class="cls-90" cx="545.27" cy="72.58" r="33.51"/><text class="cls-92" transform="translate(485.17 82.02) rotate(12.54)">POP</text><circle class="cls-89" cx="381.16" cy="273.47" r="44.48"/><circle class="cls-90" cx="381.16" cy="273.47" r="33.51"/><text class="cls-92" transform="matrix(0.73, -0.68, 0.68, 0.73, 354.85, 328.32)">POP</text><circle class="cls-89" cx="913.64" cy="233.4" r="44.48"/><circle class="cls-90" cx="913.64" cy="233.4" r="33.51"/><text class="cls-92" transform="translate(882.35 285.57) rotate(-37.58)">POP</text></svg>